<?xml version="1.0" encoding="UTF-8"?>
<svg width="73px" height="72px" viewBox="0 0 73 72" version="1.1" xmlns="http://www.w3.org/2000/svg" xmlns:xlink="http://www.w3.org/1999/xlink">
    <!-- Generator: sketchtool 52.6 (67491) - http://www.bohemiancoding.com/sketch -->
    <title>D3E13183-C17B-4311-A142-AD4F40BC7710</title>
    <desc>Created with sketchtool.</desc>
    <g id="Asset-Artboard-Page" stroke="none" stroke-width="1" fill="none" fill-rule="evenodd">
        <g id="ico-desenv" transform="translate(0.004290, 0.000000)">
            <g>
                <path d="M36,72 C55.882251,72 72,55.882251 72,36 C72,16.117749 55.882251,-3.65231026e-15 36,0 C16.117749,3.65231026e-15 -2.4348735e-15,16.117749 0,36 C2.4348735e-15,55.882251 16.117749,72 36,72 Z" id="Path" fill="#DF542A"></path>
                <path d="M56.9698125,29.287875 C56.960625,29.2366875 56.9514375,29.1855 56.9383125,29.1369375 C56.9304375,29.10675 56.918625,29.077875 56.9094375,29.049 C56.895,29.004375 56.8805625,28.9610625 56.8635,28.91775 C56.8516875,28.8875625 56.83725,28.857375 56.8228125,28.8298125 C56.8044375,28.7878125 56.78475,28.7484375 56.761125,28.710375 C56.745375,28.6815 56.727,28.6539375 56.7099375,28.626375 C56.6863125,28.5883125 56.661375,28.5515625 56.6338125,28.516125 C56.614125,28.489875 56.593125,28.463625 56.572125,28.4386875 C56.54325,28.4045625 56.5130625,28.37175 56.4815625,28.34025 C56.4579375,28.316625 56.435625,28.2916875 56.4106875,28.2706875 C56.3765625,28.2405 56.3424375,28.211625 56.3083125,28.1840625 C56.28075,28.1630625 56.2545,28.1420625 56.2269375,28.122375 C56.2164375,28.1158125 56.20725,28.106625 56.19675,28.1000625 L37.0014375,15.3031875 C36.3950625,14.8989375 35.60625,14.8989375 34.9985625,15.3031875 L15.8045625,28.1000625 C15.7940625,28.106625 15.784875,28.1158125 15.774375,28.122375 C15.7455,28.1420625 15.71925,28.1630625 15.693,28.1840625 C15.6575625,28.211625 15.6234375,28.2405 15.590625,28.2706875 C15.5656875,28.2916875 15.5420625,28.316625 15.5184375,28.34025 C15.4869375,28.37175 15.45675,28.4045625 15.4291875,28.4386875 C15.406875,28.463625 15.385875,28.489875 15.3661875,28.516125 C15.3399375,28.5515625 15.315,28.5883125 15.291375,28.626375 C15.273,28.6539375 15.2559375,28.6815 15.238875,28.710375 C15.2165625,28.7484375 15.196875,28.7878125 15.1771875,28.8298125 C15.1640625,28.857375 15.149625,28.8875625 15.1378125,28.91775 C15.1194375,28.9610625 15.105,29.004375 15.0905625,29.049 C15.081375,29.077875 15.070875,29.10675 15.063,29.1369375 C15.049875,29.1855 15.0406875,29.2366875 15.0315,29.287875 C15.02625,29.314125 15.0196875,29.3390625 15.0170625,29.366625 C15.0065625,29.44275 15,29.5215 15,29.6015625 L15,42.3984375 C15,42.4771875 15.0065625,42.5559375 15.0170625,42.6346875 C15.0196875,42.659625 15.02625,42.685875 15.0315,42.712125 C15.0406875,42.7633125 15.049875,42.8131875 15.063,42.8630625 C15.070875,42.89325 15.081375,42.922125 15.0905625,42.951 C15.105,42.9943125 15.1194375,43.0389375 15.1378125,43.0835625 C15.149625,43.1124375 15.1640625,43.1413125 15.1771875,43.1701875 C15.196875,43.210875 15.2165625,43.25025 15.238875,43.2909375 C15.2559375,43.3185 15.273,43.3460625 15.291375,43.373625 C15.315,43.4116875 15.3399375,43.447125 15.3661875,43.4825625 C15.385875,43.510125 15.406875,43.536375 15.4291875,43.5613125 C15.45675,43.594125 15.4869375,43.62825 15.5184375,43.6584375 C15.5420625,43.683375 15.5656875,43.707 15.590625,43.7293125 C15.6234375,43.7595 15.6575625,43.788375 15.693,43.8159375 C15.71925,43.8369375 15.7455,43.8579375 15.774375,43.877625 C15.784875,43.8841875 15.7940625,43.893375 15.8045625,43.8999375 L34.9985625,56.6968125 C35.30175,56.8989375 35.650875,57 36,57 C36.349125,57 36.69825,56.8989375 37.0014375,56.6968125 L56.19675,43.8999375 C56.20725,43.893375 56.2164375,43.8841875 56.2269375,43.877625 C56.2545,43.8579375 56.28075,43.8369375 56.3083125,43.8159375 C56.3424375,43.788375 56.3765625,43.7595 56.4106875,43.7293125 C56.435625,43.707 56.4579375,43.683375 56.4815625,43.6584375 C56.5130625,43.62825 56.54325,43.594125 56.572125,43.5613125 C56.593125,43.536375 56.614125,43.510125 56.6338125,43.4825625 C56.661375,43.447125 56.6863125,43.4116875 56.7099375,43.373625 C56.727,43.3460625 56.745375,43.3185 56.761125,43.2909375 C56.78475,43.25025 56.8044375,43.210875 56.8228125,43.1701875 C56.83725,43.1413125 56.8516875,43.1124375 56.8635,43.0835625 C56.8805625,43.0389375 56.895,42.9943125 56.9094375,42.951 C56.918625,42.922125 56.9304375,42.89325 56.9383125,42.8630625 C56.9514375,42.8131875 56.960625,42.7633125 56.9698125,42.712125 C56.97375,42.685875 56.9803125,42.659625 56.98425,42.6346875 C56.99475,42.5559375 57,42.4771875 57,42.3984375 L57,29.6015625 C57,29.5215 56.99475,29.44275 56.98425,29.366625 C56.9803125,29.3390625 56.97375,29.314125 56.9698125,29.287875 Z M38,20 L52,29.6671474 L45.7471691,34 L38,28.6320546 L38,20 Z M34,20 L34,28.6320546 L26.2541303,34 L20,29.6671474 L34,20 Z M18,33 L23,36 L18,39 L18,33 Z M34,52 L20,42.3319231 L26.2541303,38 L34,43.3671154 L34,52 Z M36.4993318,41 L30,36.5 L36.4993318,32 L43,36.5 L36.4993318,41 Z M38,52 L38,43.3671154 L45.7471691,38 L52,42.3319231 L38,52 Z M54,39 L49,36 L54,33 L54,39 Z" id="Shape" fill="#FFFFFF" fill-rule="nonzero"></path>
            </g>
        </g>
    </g>
</svg>