<?xml version="1.0" encoding="UTF-8"?>
<svg width="8px" height="16px" viewBox="0 0 8 16" version="1.1" xmlns="http://www.w3.org/2000/svg" xmlns:xlink="http://www.w3.org/1999/xlink">
    <!-- Generator: sketchtool 52.6 (67491) - http://www.bohemiancoding.com/sketch -->
    <title>4512CCFA-AB24-4ACF-B906-838DC0A149BD</title>
    <desc>Created with sketchtool.</desc>
    <g id="Asset-Artboard-Page" stroke="none" stroke-width="1" fill="none" fill-rule="evenodd">
        <g id="ico-Facebook" transform="translate(0.004290, 0.000000)" fill="#FFFFFF">
            <g id="facebook">
                <path d="M1.53023256,8.05217391 L1.53023256,15.773913 C1.53023256,15.8782609 1.61162791,15.9826087 1.7255814,15.9826087 L4.41162791,15.9826087 C4.50930233,15.9826087 4.60697674,15.8956522 4.60697674,15.773913 L4.60697674,7.91304348 L6.54418605,7.91304348 C6.64186047,7.91304348 6.72325581,7.82608696 6.73953488,7.72173913 L6.90232558,5.37391304 C6.91860465,5.25217391 6.82093023,5.14782609 6.70697674,5.14782609 L4.59069767,5.14782609 L4.59069767,3.47826087 C4.59069767,3.07826087 4.88372093,2.76521739 5.25813953,2.76521739 L6.75581395,2.76521739 C6.85348837,2.76521739 6.95116279,2.67826087 6.95116279,2.55652174 L6.95116279,0.208695652 C6.95116279,0.104347826 6.86976744,0 6.75581395,0 L4.21627907,0 C2.73488372,0 1.53023256,1.28695652 1.53023256,2.86956522 L1.53023256,5.14782609 L0.195348837,5.14782609 C0.0976744186,5.14782609 0,5.23478261 0,5.35652174 L0,7.72173913 C0,7.82608696 0.0813953488,7.93043478 0.195348837,7.93043478 L1.53023256,7.93043478 L1.53023256,8.05217391 Z"></path>
            </g>
        </g>
    </g>
</svg>