<?xml version="1.0" encoding="UTF-8"?>
<svg width="18px" height="17px" viewBox="0 0 18 17" version="1.1" xmlns="http://www.w3.org/2000/svg" xmlns:xlink="http://www.w3.org/1999/xlink">
    <!-- Generator: sketchtool 52.6 (67491) - http://www.bohemiancoding.com/sketch -->
    <title>CC363175-A1B8-438B-9AE9-4C8E98D5E6CB</title>
    <desc>Created with sketchtool.</desc>
    <g id="Asset-Artboard-Page" stroke="none" stroke-width="1" fill="none" fill-rule="evenodd">
        <g id="ico-Instagram" transform="translate(0.004290, 0.000000)" fill="#FFFFFF" fill-rule="nonzero">
            <g id="Instagram">
                <path d="M12.9625,3.11666667 C12.4135417,3.11666667 11.9708333,3.559375 11.9708333,4.10833333 C11.9708333,4.65729167 12.4135417,5.1 12.9625,5.1 C13.5114583,5.1 13.9541667,4.65729167 13.9541667,4.10833333 C13.9541667,3.559375 13.5114583,3.11666667 12.9625,3.11666667 Z M8.53541667,4.39166667 C6.23333333,4.39166667 4.35625,6.26875 4.35625,8.57083333 C4.35625,10.8729167 6.23333333,12.75 8.53541667,12.75 C10.8375,12.75 12.7145833,10.8729167 12.7145833,8.57083333 C12.7145833,6.26875 10.8375,4.39166667 8.53541667,4.39166667 Z M8.53541667,11.2625 C7.04791667,11.2625 5.86145833,10.0583333 5.86145833,8.58854167 C5.86145833,7.10104167 7.065625,5.91458333 8.53541667,5.91458333 C10.0229167,5.91458333 11.209375,7.11875 11.209375,8.58854167 C11.209375,10.0583333 10.0052083,11.2625 8.53541667,11.2625 Z M16.9822917,5.1 C16.9822917,2.284375 14.6979167,-7.10542736e-15 11.8822917,-7.10542736e-15 L5.13541667,-7.10542736e-15 C2.31979167,-7.10542736e-15 0.0354166667,2.284375 0.0354166667,5.1 L0.0354166667,11.846875 C0.0354166667,14.6625 2.31979167,16.946875 5.13541667,16.946875 L11.8645833,16.946875 C14.6802083,16.946875 16.9645833,14.6625 16.9645833,11.846875 L16.9645833,5.1 L16.9822917,5.1 Z M15.3708333,11.8291667 C15.3708333,13.759375 13.7947917,15.3354167 11.8645833,15.3354167 L5.13541667,15.3354167 C3.20520833,15.3354167 1.62916667,13.759375 1.62916667,11.8291667 L1.62916667,5.1 C1.62916667,3.15208333 3.1875,1.59375 5.13541667,1.59375 L11.8645833,1.59375 C13.7947917,1.59375 15.3708333,3.16979167 15.3708333,5.1 L15.3708333,11.8291667 Z"></path>
            </g>
        </g>
    </g>
</svg>