<?xml version="1.0" encoding="UTF-8"?>
<svg width="18px" height="17px" viewBox="0 0 18 17" version="1.1" xmlns="http://www.w3.org/2000/svg" xmlns:xlink="http://www.w3.org/1999/xlink">
    <!-- Generator: sketchtool 52.6 (67491) - http://www.bohemiancoding.com/sketch -->
    <title>C4CBDB22-4A9D-405D-8E53-C6B5CA888827</title>
    <desc>Created with sketchtool.</desc>
    <g id="Asset-Artboard-Page" stroke="none" stroke-width="1" fill="none" fill-rule="evenodd">
        <g id="ico-Linkedin" transform="translate(0.004290, 0.000000)" fill="#FFFFFF">
            <g id="ico-LINKEDIN" transform="translate(0.000000, 0.000000)">
                <path d="M16.8756098,9.88902439 L16.8756098,15.797561 C16.8756098,15.9426829 16.7512195,16.0670732 16.6060976,16.0670732 L13.5585366,16.0670732 C13.4134146,16.0670732 13.2890244,15.9426829 13.2890244,15.797561 L13.2890244,10.3036585 C13.2890244,8.85243902 12.7707317,7.85731707 11.4646341,7.85731707 C10.4695122,7.85731707 9.88902439,8.52073171 9.6195122,9.16341463 C9.51585366,9.39146341 9.49512195,9.72317073 9.49512195,10.0341463 L9.49512195,15.797561 C9.49512195,15.9426829 9.37073171,16.0670732 9.22560976,16.0670732 L6.19878049,16.0670732 C6.05365854,16.0670732 5.92926829,15.9426829 5.92926829,15.797561 C5.92926829,14.3256098 5.97073171,7.21463415 5.92926829,5.55609756 C5.92926829,5.41097561 6.05365854,5.28658537 6.19878049,5.28658537 L9.24634146,5.28658537 C9.39146341,5.28658537 9.51585366,5.41097561 9.51585366,5.55609756 L9.51585366,6.82073171 C9.51585366,6.84146341 9.49512195,6.84146341 9.49512195,6.86219512 L9.51585366,6.86219512 L9.51585366,6.82073171 C9.99268293,6.09512195 10.8426829,5.03780488 12.75,5.03780488 C15.1134146,5.03780488 16.8756098,6.59268293 16.8756098,9.88902439 Z M0.62195122,16.0878049 L3.6695122,16.0878049 C3.81463415,16.0878049 3.93902439,15.9634146 3.93902439,15.8182927 L3.93902439,5.55609756 C3.93902439,5.41097561 3.81463415,5.28658537 3.6695122,5.28658537 L0.62195122,5.28658537 C0.476829268,5.28658537 0.352439024,5.41097561 0.352439024,5.55609756 L0.352439024,15.8182927 C0.373170732,15.9634146 0.476829268,16.0878049 0.62195122,16.0878049 Z" id="in" fill-rule="nonzero"></path>
                <circle id="circulo" cx="2.05243902" cy="2.01097561" r="1.92804878"></circle>
            </g>
        </g>
    </g>
</svg>