<?xml version="1.0" encoding="UTF-8"?>
<svg width="16px" height="13px" viewBox="0 0 16 13" version="1.1" xmlns="http://www.w3.org/2000/svg" xmlns:xlink="http://www.w3.org/1999/xlink">
    <!-- Generator: sketchtool 52.6 (67491) - http://www.bohemiancoding.com/sketch -->
    <title>B54E3C9B-D04E-4BFC-B058-45CF51BEDEEF</title>
    <desc>Created with sketchtool.</desc>
    <g id="Asset-Artboard-Page" stroke="none" stroke-width="1" fill="none" fill-rule="evenodd">
        <g id="ico-Twitter" transform="translate(0.004290, 0.000000)" fill="#FFFFFF">
            <g>
                <path d="M14.8833333,1.664 C14.4166667,1.88933333 13.8833333,2.028 13.3833333,2.11466667 C13.6333333,2.08 13.9833333,1.612 14.1333333,1.43866667 C14.35,1.16133333 14.5333333,0.832 14.6333333,0.485333333 C14.65,0.450666667 14.65,0.416 14.6333333,0.398666667 C14.6,0.381333333 14.5833333,0.398666667 14.55,0.398666667 C13.9833333,0.710666667 13.4,0.953333333 12.7666667,1.10933333 C12.7166667,1.12666667 12.6833333,1.10933333 12.65,1.07466667 C12.6,1.00533333 12.55,0.953333333 12.5,0.901333333 C12.2333333,0.676 11.95,0.485333333 11.6333333,0.346666667 C11.2166667,0.173333333 10.75,0.0866666667 10.3,0.121333333 C9.86666667,0.156 9.43333333,0.277333333 9.05,0.485333333 C8.66666667,0.693333333 8.31666667,0.988 8.03333333,1.352 C7.75,1.716 7.53333333,2.14933333 7.43333333,2.61733333 C7.33333333,3.068 7.33333333,3.50133333 7.4,3.952 C7.41666667,4.02133333 7.4,4.03866667 7.33333333,4.02133333 C4.86666667,3.65733333 2.83333333,2.756 1.18333333,0.797333333 C1.11666667,0.710666667 1.06666667,0.710666667 1.01666667,0.797333333 C0.3,1.924 0.65,3.72666667 1.55,4.628 C1.66666667,4.74933333 1.8,4.87066667 1.93333333,4.97466667 C1.88333333,4.992 1.28333333,4.92266667 0.75,4.628 C0.683333333,4.576 0.65,4.61066667 0.633333333,4.69733333 C0.633333333,4.81866667 0.633333333,4.92266667 0.65,5.06133333 C0.783333333,6.20533333 1.55,7.26266667 2.58333333,7.66133333 C2.7,7.71333333 2.85,7.76533333 2.98333333,7.78266667 C2.75,7.83466667 2.5,7.86933333 1.81666667,7.81733333 C1.73333333,7.8 1.7,7.852 1.73333333,7.92133333 C2.23333333,9.37733333 3.33333333,9.81066667 4.16666667,10.0533333 C4.28333333,10.0706667 4.38333333,10.0706667 4.5,10.1053333 C4.5,10.1226667 4.48333333,10.1226667 4.48333333,10.1226667 C4.21666667,10.556 3.26666667,10.8853333 2.81666667,11.0413333 C2.01666667,11.336 1.13333333,11.4573333 0.283333333,11.3706667 C0.15,11.3533333 0.116666667,11.3533333 0.0833333333,11.3706667 C0.05,11.388 0.0833333333,11.4226667 0.116666667,11.4573333 C0.283333333,11.5786667 0.466666667,11.6826667 0.65,11.7866667 C1.18333333,12.0813333 1.75,12.324 2.33333333,12.4973333 C5.36666667,13.364 8.8,12.7226667 11.0833333,10.3653333 C12.8666667,8.528 13.5,5.98 13.5,3.41466667 C13.5,3.31066667 13.6166667,3.25866667 13.6833333,3.20666667 C14.15,2.84266667 14.5166667,2.40933333 14.8666667,1.924 C14.95,1.82 14.9333333,1.716 14.9333333,1.68133333 C14.9333333,1.68133333 14.9333333,1.664 14.9333333,1.664 C14.9333333,1.62933333 14.95,1.62933333 14.8833333,1.664 Z" id="twitter"></path>
                <path d="M4.48333333,12.8266667 C5.73333333,12.8266667 4.53333333,12.8266667 4.48333333,12.8266667 C4.65,12.8266667 4.46666667,12.8266667 4.48333333,12.8266667 Z" id="XMLID_64_"></path>
                <path d="M4.48333333,12.8266667 C4.46666667,12.8266667 4.23333333,12.8266667 4.48333333,12.8266667 C4.48333333,12.8266667 4.43333333,12.8266667 4.48333333,12.8266667 Z" id="XMLID_62_"></path>
                <path d="M4.98333333,12.844 C4.98333333,12.8093333 5.25,12.844 4.98333333,12.844 C4.98333333,12.8266667 5.01666667,12.844 4.98333333,12.844 Z" id="XMLID_60_"></path>
                <path d="M10.25,0.156 C10.2333333,0.173333333 10.2166667,0.173333333 10.1833333,0.156 C10.2,0.156 10.2333333,0.156 10.25,0.156 Z" id="XMLID_58_"></path>
            </g>
        </g>
    </g>
</svg>