<?xml version="1.0" encoding="UTF-8"?>
<svg width="210px" height="55px" viewBox="0 0 210 55" version="1.1" xmlns="http://www.w3.org/2000/svg" xmlns:xlink="http://www.w3.org/1999/xlink">
    <!-- Generator: sketchtool 52.6 (67491) - http://www.bohemiancoding.com/sketch -->
    <title>5FCE0053-3C0E-45CE-B34B-5F0D32BC927D</title>
    <desc>Created with sketchtool.</desc>
    <defs>
        <polygon id="path-1" points="0.134373439 0.216276138 25.2954719 0.216276138 25.2954719 10.9990433 0.134373439 10.9990433"></polygon>
        <polygon id="path-3" points="0.0899226882 0.0948611671 19.449613 0.0948611671 19.449613 14.3881052 0.0899226882 14.3881052"></polygon>
        <polygon id="path-5" points="0.0149019612 0.245493135 32.7589796 0.245493135 32.7589796 32.8883344 0.0149019612 32.8883344"></polygon>
    </defs>
    <g id="Asset-Artboard-Page" stroke="none" stroke-width="1" fill="none" fill-rule="evenodd">
        <g id="MARCA_PROTECH_POSITIVA" transform="translate(0.482759, 0.000000)">
            <g>
                <g id="Group-4" transform="translate(52.454902, 43.209014)">
                    <mask id="mask-2" fill="white">
                        <use xlink:href="#path-1"></use>
                    </mask>
                    <g id="Clip-2"></g>
                    <path d="M4.72795431,10.9750127 C3.94816927,10.9750127 3.15921645,10.8430943 2.35873842,10.5795078 C1.55904621,10.3149199 0.818027773,9.92617359 0.134373439,9.4105152 L1.24157914,7.80020919 C1.82884083,8.21899389 2.42762773,8.53564819 3.03558241,8.75067273 C3.64406096,8.96644823 4.22844135,9.07433597 4.78924745,9.07433597 C5.32202635,9.07433597 5.73588606,8.97295654 6.03004078,8.7706983 C6.32340969,8.56894069 6.47035608,8.29884584 6.47035608,7.95966278 L6.47035608,7.92061292 C6.47035608,7.72511331 6.40591969,7.55564694 6.27573724,7.41296476 C6.14607866,7.26928131 5.96796182,7.14487247 5.74269641,7.04048919 C5.51690712,6.93685687 5.25706609,6.83848127 4.96369718,6.74711461 C4.66954246,6.65599828 4.36491028,6.56463162 4.05111032,6.47351529 C3.65401455,6.36988297 3.25456134,6.24547413 2.85144103,6.10254163 C2.44805878,5.9591085 2.08527669,5.77312104 1.76440444,5.54507988 C1.44327026,5.3167884 1.18002405,5.03367692 0.974665816,4.69449386 C0.770093389,4.35556112 0.667152334,3.93852866 0.667152334,3.44289584 L0.667152334,3.40384598 C0.667152334,2.9214801 0.766426277,2.48467239 0.964974164,2.09367317 C1.16273624,1.70242363 1.43619798,1.3699992 1.78509743,1.09614955 C2.13373495,0.822299904 2.54366561,0.613783673 3.01515136,0.471101499 C3.48742292,0.327918685 3.98903136,0.255326 4.52259607,0.255326 C5.2062504,0.255326 5.89671509,0.361211193 6.59399012,0.572480939 C7.29126515,0.784001004 7.92646123,1.07362079 8.50088803,1.44384348 L7.51626863,3.13675496 C6.99632463,2.8358708 6.47035608,2.59756654 5.93757719,2.4208409 C5.40401248,2.24486621 4.91209568,2.15675371 4.46104098,2.15675371 C3.98222101,2.15675371 3.61000921,2.25437836 3.34335783,2.44987797 C3.07644451,2.6456279 2.94390462,2.89319399 2.94390462,3.19232592 L2.94390462,3.23212673 C2.94390462,3.41486004 3.01200812,3.57406331 3.14847705,3.71098814 C3.28494598,3.84766264 3.46672993,3.97182116 3.69199534,4.08246243 C3.91778463,4.19335401 4.17683985,4.29748697 4.47099457,4.39536193 C4.76514929,4.4932369 5.06899566,4.58810803 5.38358143,4.67947468 C5.7798914,4.7958733 6.1764633,4.93279812 6.57355907,5.08924788 C6.96986904,5.24644859 7.32846014,5.43844372 7.64985626,5.66648488 C7.97099044,5.89477636 8.23397471,6.17213048 8.43933295,6.49729565 C8.64416731,6.82321177 8.74710837,7.22096963 8.74710837,7.69031888 L8.74710837,7.72936874 C8.74710837,8.27706804 8.64416731,8.75267528 8.43933295,9.15694144 C8.23397471,9.56120761 7.95055939,9.89638556 7.58830118,10.1637269 C7.22604296,10.4310682 6.79856255,10.6330762 6.30664575,10.770001 C5.81472895,10.9069258 5.28823654,10.9750127 4.72795431,10.9750127" id="Fill-1" fill="#DF542A" mask="url(#mask-2)"></path>
                    <path d="M19.5336548,8.95643534 C20.0355252,8.95643534 20.4878896,8.86857316 20.8881286,8.69209784 C21.2888915,8.51612316 21.6322903,8.27781889 21.9172772,7.97718505 C22.20305,7.67630088 22.4207193,7.32735535 22.5700231,6.9283459 C22.7193269,6.52983709 22.7942407,6.10854919 22.7942407,5.66423189 L22.7942407,5.62518203 C22.7942407,5.16834875 22.7125166,4.73654743 22.5493301,4.33178063 C22.3864056,3.92676351 22.1590447,3.57406318 21.8667235,3.27342934 C21.5746643,2.97279549 21.2283842,2.73449123 20.8276213,2.55851654 C20.4265965,2.3817909 19.9815663,2.29342808 19.4927927,2.29342808 C19.0032334,2.29342808 18.5584651,2.3817909 18.1574403,2.55851654 C17.7564155,2.73449123 17.4138025,2.97004198 17.1280297,3.26391719 C16.8430428,3.55729177 16.6256355,3.90723858 16.4763317,4.3122557 C16.3270278,4.7170225 16.2526379,5.14206519 16.2526379,5.58613217 L16.2526379,5.62518203 C16.2526379,6.08226563 16.3338382,6.51031216 16.4967627,6.90882097 C16.6596872,7.30783042 16.8870481,7.66053074 17.1796312,7.96692194 C17.4714285,8.2740641 17.8177086,8.51612316 18.2187335,8.69209784 C18.6197583,8.86857316 19.0577162,8.95643534 19.5336548,8.95643534 Z M19.4920068,11.0140619 C18.6718835,11.0140619 17.9096482,10.8736326 17.2063487,10.5932746 C16.5014775,10.3124161 15.8935228,9.92967741 15.3811749,9.44681093 C14.8680413,8.96369413 14.4685881,8.39496802 14.1815057,7.7416339 C13.8941613,7.0885501 13.750882,6.3959158 13.750882,5.66423164 L13.750882,5.62518179 C13.750882,4.88073133 13.8970426,4.18158872 14.1911973,3.52850492 C14.485352,2.8751708 14.8884723,2.30344086 15.401606,1.81331511 C15.9139538,1.32368999 16.5226943,0.935444313 17.2267797,0.647827107 C17.9308651,0.36046022 18.6993868,0.216276138 19.5336547,0.216276138 C20.3673986,0.216276138 21.1359204,0.356705426 21.8400058,0.637814323 C22.5440912,0.9186729 23.1528316,1.30416507 23.6651795,1.79379018 C24.1783131,2.28391593 24.5777663,2.85189108 24.8648488,3.49871689 C25.1521931,4.1455427 25.2954724,4.84168148 25.2954724,5.58613193 L25.2954724,5.62518179 C25.2954724,6.35686594 25.1482641,7.04924992 24.8551571,7.70258404 C24.5610024,8.35591817 24.1578821,8.92714747 23.6447484,9.41677258 C23.1324006,9.90714865 22.5207788,10.2961453 21.8096211,10.5832619 C21.0987254,10.8706287 20.3257507,11.0140619 19.4920068,11.0140619 Z" id="Fill-3" fill="#DF542A" mask="url(#mask-2)"></path>
                </g>
                <polygon id="Fill-5" fill="#DF542A" points="81.9607831 54.2230759 84.4196066 54.2230759 84.4196066 39.8200713 81.9607831 39.8200713"></polygon>
                <path d="M94.8660623,54.2230759 C93.6246579,54.2230759 92.6660414,53.84851 91.9904778,53.0993784 C91.3141191,52.3499857 90.9764699,51.3416598 90.9764699,50.0751836 L90.9764699,43.2090136 L93.5080444,43.2090136 L93.5080444,49.3252689 C93.5080444,50.1681072 93.7097328,50.8167456 94.1146999,51.2724891 C94.518872,51.7277105 95.0916036,51.9550602 95.8323648,51.9550602 C96.5585492,51.9550602 97.1485079,51.720663 97.6017106,51.2518684 C98.0541182,50.7830738 98.2801895,50.1273879 98.2801895,49.2842885 L98.2801895,43.2090136 L100.811764,43.2090136 L100.811764,53.9988584 L98.2801895,53.9988584 L98.2801895,52.3056121 C97.9213378,52.8279161 97.4734357,53.2781781 96.9351581,53.6563982 C96.3968804,54.0343573 95.7075352,54.2230759 94.8660623,54.2230759" id="Fill-6" fill="#DF542A"></path>
                <path d="M109.267383,54.2230759 C108.831676,54.2230759 108.427091,54.1700116 108.054386,54.0643908 C107.681682,53.9585161 107.358823,53.7858667 107.085811,53.5472043 C106.812798,53.3090498 106.603294,52.9939646 106.457046,52.6029646 C106.309786,52.2122184 106.237168,51.7252456 106.237168,51.1417923 L106.237168,45.6165044 L104.909805,45.6165044 L104.909805,43.549282 L106.237168,43.549282 L106.237168,40.6673069 L108.6538,40.6673069 L108.6538,43.549282 L111.466667,43.549282 L111.466667,45.6165044 L108.6538,45.6165044 L108.6538,50.7642487 C108.6538,51.2286248 108.766143,51.5627521 108.990575,51.7686619 C109.214754,51.9743177 109.531793,52.076384 109.940933,52.076384 C110.456343,52.076384 110.951258,51.9573067 111.427196,51.7186443 L111.427196,53.6868472 C111.122555,53.858481 110.799949,53.9915226 110.456343,54.0841947 C110.112483,54.1766129 109.716248,54.2230759 109.267383,54.2230759" id="Fill-7" fill="#DF542A"></path>
                <g id="Group-11" transform="translate(117.203928, 39.820071)">
                    <mask id="mask-4" fill="white">
                        <use xlink:href="#path-3"></use>
                    </mask>
                    <g id="Clip-9"></g>
                    <path d="M0.190319329,14.1703214 L2.63049414,14.1703214 L2.63049414,3.90520073 L0.190319329,3.90520073 L0.190319329,14.1703214 Z M0.0899226882,2.33030675 L2.71019829,2.33030675 L2.71019829,0.0948611671 L0.0899226882,0.0948611671 L0.0899226882,2.33030675 Z" id="Fill-8" fill="#DF542A" mask="url(#mask-4)"></path>
                    <path d="M13.8304674,12.3617513 C14.3199329,12.3617513 14.7611161,12.2745883 15.1514623,12.0995172 C15.5423195,11.9249429 15.8772304,11.688535 16.1551732,11.3902934 C16.4338825,11.0918036 16.6459161,10.7456348 16.791785,10.3498005 C16.937143,9.95446283 17.0104606,9.53652736 17.0104606,9.09574574 L17.0104606,9.05700663 C17.0104606,8.60380863 16.9305009,8.17544339 16.7716035,7.77389755 C16.612706,7.37210338 16.3909648,7.02220969 16.1056136,6.72396816 C15.8210287,6.42572663 15.4830522,6.18931868 15.0921951,6.01474433 C14.701338,5.839425 14.2673077,5.75176533 13.7903598,5.75176533 C13.312901,5.75176533 12.8791262,5.839425 12.4882691,6.01474433 C12.0971565,6.18931868 11.763012,6.42299502 11.4843027,6.71453171 C11.2063599,7.00557174 10.9940708,7.35273382 10.8487128,7.75452799 C10.7030994,8.15607384 10.6305481,8.57773422 10.6305481,9.01826751 L10.6305481,9.05700663 C10.6305481,9.51045295 10.7097414,9.93509327 10.8686389,10.3304309 C11.0275364,10.7262652 11.2492775,11.0761589 11.5343733,11.380112 C11.8192137,11.68481 12.1569347,11.9249429 12.5480473,12.0995172 C12.9389044,12.2745883 13.3662926,12.3617513 13.8304674,12.3617513 Z M13.789849,14.4030047 C12.9899969,14.4030047 12.2466019,14.2636929 11.5604305,13.9855659 C10.8732372,13.7069423 10.280054,13.3272493 9.78036994,12.8482252 C9.27991951,12.3689528 8.89059513,11.8047524 8.61035311,11.1566171 C8.33011109,10.5087303 8.19062873,9.8216076 8.19062873,9.09574582 L8.19062873,9.05700671 C8.19062873,8.31848022 8.33317663,7.62490105 8.62006067,6.97701416 C8.90668925,6.32887895 9.29984556,5.76169855 9.80029599,5.27547298 C10.29998,4.78974406 10.8939296,4.40458784 11.5803565,4.11925935 C12.2672943,3.83417919 13.0165649,3.69114245 13.8304675,3.69114245 C14.6433482,3.69114245 15.3931297,3.83045428 16.0795566,4.10932625 C16.7664944,4.38794989 17.3599331,4.7703745 17.8596171,5.25610342 C18.3600676,5.74232899 18.7499029,6.30578447 19.0298894,6.94746317 C19.309876,7.58914186 19.4496138,8.27974111 19.4496138,9.01826759 L19.4496138,9.05700671 C19.4496138,9.78286848 19.3062995,10.4697428 19.0201819,11.117878 C18.7332978,11.7660132 18.3401415,12.332697 17.8396911,12.8184259 C17.340007,13.3048998 16.7435028,13.690801 16.0501784,13.9756328 C15.3568541,14.260713 14.6029851,14.4030047 13.789849,14.4030047 Z" id="Fill-10" fill="#DF542A" mask="url(#mask-4)"></path>
                </g>
                <path d="M141.792161,43.4339981 L144.323607,43.4339981 L144.323607,45.126341 C144.503042,44.8658601 144.699441,44.6220834 144.913332,44.3947499 C145.127223,44.1679383 145.375571,43.9656611 145.658109,43.786613 C145.940912,43.607826 146.251545,43.4674065 146.588947,43.3637883 C146.927145,43.2612142 147.30987,43.2090136 147.737653,43.2090136 C148.979389,43.2090136 149.938057,43.5843358 150.613657,44.3326312 C151.289522,45.0824926 151.627455,46.0902248 151.627455,47.357394 L151.627455,54.2230759 L149.096009,54.2230759 L149.096009,48.1072554 C149.096009,47.264477 148.893515,46.6156237 148.489321,46.1601736 C148.084597,45.7049845 147.512364,45.477651 146.771563,45.477651 C146.044545,45.477651 145.455614,45.7115096 145.002122,46.1805318 C144.54969,46.6495541 144.323607,47.3051934 144.323607,48.1479719 L144.323607,54.2230759 L141.792161,54.2230759 L141.792161,43.4339981" id="Fill-12" fill="#DF542A"></path>
                <path d="M161.736065,54.2230759 C160.993754,54.2230759 160.243218,54.0875348 159.481464,53.8167098 C158.720459,53.5448561 158.015039,53.1454343 157.364707,52.6156153 L158.4181,50.9610884 C158.977451,51.3913734 159.547021,51.7167234 160.125565,51.9376528 C160.704607,52.1593538 161.260717,52.2702042 161.794393,52.2702042 C162.301647,52.2702042 162.695486,52.1660408 162.975161,51.9582283 C163.254337,51.7509302 163.394175,51.4734182 163.394175,51.1249208 L163.394175,51.0847985 C163.394175,50.8839303 163.332856,50.7098102 163.208722,50.5632098 C163.085336,50.4155806 162.915836,50.2877553 162.701717,50.1805056 C162.486851,50.0740274 162.23958,49.9729503 161.960154,49.8790746 C161.680479,49.7854561 161.390584,49.6915804 161.091965,49.5979619 C160.71383,49.4914837 160.33395,49.3636584 159.950331,49.2168008 C159.566464,49.0694288 159.220982,48.8783339 158.915882,48.6440305 C158.610283,48.4094699 158.359772,48.1185838 158.164349,47.7700864 C157.969673,47.4218461 157.871462,46.9933614 157.871462,46.4841179 L157.871462,46.4439957 C157.871462,45.9483835 157.966183,45.4995805 158.155126,45.097844 C158.343321,44.6958503 158.603803,44.3542971 158.935574,44.0729272 C159.267346,43.7915573 159.657445,43.5773149 160.106122,43.4307145 C160.555547,43.2835997 161.032889,43.2090136 161.540641,43.2090136 C162.190973,43.2090136 162.848285,43.3178065 163.511828,43.534878 C164.175122,43.7522066 164.779589,44.0497797 165.326227,44.4301692 L164.38949,46.1695701 C163.894699,45.8604233 163.394175,45.6155749 162.88717,45.4339961 C162.379418,45.253189 161.911298,45.1626568 161.482064,45.1626568 C161.026159,45.1626568 160.672203,45.2629623 160.418451,45.4638306 C160.16445,45.6649561 160.038073,45.9193206 160.038073,46.2266671 L160.038073,46.2675609 C160.038073,46.4553122 160.103131,46.6188874 160.232998,46.7595724 C160.362616,46.9000001 160.536104,47.0275682 160.750222,47.1412478 C160.96484,47.2551846 161.211612,47.3621772 161.491536,47.4627399 C161.771461,47.5633026 162.060608,47.660779 162.359975,47.7546547 C162.737113,47.8742498 163.114251,48.0149347 163.492385,48.1756808 C163.869523,48.3371984 164.210767,48.534466 164.516365,48.7687694 C164.822214,49.0033301 165.072475,49.2883007 165.267899,49.6223953 C165.462575,49.9572614 165.560785,50.3659422 165.560785,50.8481804 L165.560785,50.8883026 C165.560785,51.4510424 165.462575,51.9397103 165.267899,52.3550781 C165.072475,52.7704459 164.802771,53.1148283 164.458038,53.3895111 C164.113304,53.664194 163.706504,53.8717493 163.238384,54.0124342 C162.770265,54.1531192 162.268993,54.2230759 161.736065,54.2230759" id="Fill-13" fill="#DF542A"></path>
                <path d="M52.4892001,12.7487987 C52.4892001,14.9494314 50.4502912,15.2779963 49.2349071,15.2779963 L45.0441326,15.2779963 L45.0441326,10.1390705 L49.1956178,10.1390705 C51.3810862,10.1390705 52.4892001,10.9900105 52.4892001,12.6679997 L52.4892001,12.7487987 Z M49.1956178,8.4723556 L44.2415448,8.4723556 C43.798506,8.4723556 43.4392155,8.8454807 43.4392155,9.30557884 L43.4392155,16.111488 C43.4392155,16.5715861 43.798506,16.9447112 44.2415448,16.9447112 L49.2349071,16.9447112 C52.2322686,16.9447112 54.0941171,15.3370521 54.0941171,12.7487987 L54.0941171,12.6679997 C54.0941171,10.0408232 52.2627696,8.4723556 49.1956178,8.4723556 Z" id="Fill-14" fill="#0F3560"></path>
                <path d="M53.3499847,29.7016395 L48.1857791,21.586313 C48.0396726,21.3569916 47.7936252,21.2191337 47.5300754,21.2191337 L44.2764153,21.2191337 C43.841647,21.2191337 43.4890635,21.5876386 43.4890635,22.0420396 L43.4890635,29.7016395 L37.6377007,29.7016395 L37.6377007,3.34054807 L49.5212839,3.34054807 C53.2033709,3.34054807 55.9504777,4.28010303 57.69919,6.1464876 C59.136665,7.612819 59.8354904,9.55369989 59.8354904,12.0794166 L59.8354904,12.1600105 C59.8354904,16.7938934 57.0982762,18.983714 54.8019182,20.0049233 C54.5847877,20.1014238 54.4204178,20.2946901 54.3542133,20.5314346 C54.2882625,20.7681791 54.327072,21.0234814 54.460242,21.227087 L60.0094992,29.7016395 L53.3499847,29.7016395 Z M56.2814997,21.0934704 C59.5980666,19.2824942 61.4104468,16.144105 61.4104468,12.1600103 L61.4104468,12.0794164 C61.4104468,9.12846097 60.5320322,6.73609535 58.8119832,4.98185296 C56.7685214,2.80025093 53.6427046,1.69447112 49.5212835,1.69447112 L36.850349,1.69447112 C36.415327,1.69447112 36.0627436,2.06297602 36.0627436,2.51737703 L36.0627436,30.5245447 C36.0627436,30.9792108 36.415327,31.3477157 36.850349,31.3477157 L44.2764151,31.3477157 C44.7114371,31.3477157 45.0640205,30.9792108 45.0640205,30.5245447 L45.0640205,22.8652102 L47.1082433,22.8652102 L52.2724488,30.9805364 C52.4185553,31.2098578 52.6646027,31.3477157 52.9281524,31.3477157 L61.502778,31.3477157 C61.794991,31.3477157 62.0631066,31.1785746 62.1993205,30.9084261 C62.3355344,30.6385426 62.3175247,30.3116602 62.1526476,30.0598044 L56.2814997,21.0934704 Z" id="Fill-15" fill="#0F3560"></path>
                <path d="M94.3250525,16.9449741 C94.3250525,24.5815242 88.3371316,30.5634841 80.6929612,30.5634841 C76.9452985,30.5634841 73.496337,29.1582517 70.9816376,26.6068667 C68.5028228,24.0920051 67.1376931,20.6884943 67.1376931,17.0240644 L67.1376931,16.9449741 C67.1376931,9.3081612 73.1253613,3.32593855 80.7695318,3.32593855 C84.5169417,3.32593855 87.9656506,4.73117098 90.4806026,7.28281872 C92.9596701,9.79794303 94.3250525,13.201191 94.3250525,16.8653583 L94.3250525,16.9449741 Z M80.7695318,1.69447112 C72.245684,1.69447112 65.5686279,8.3932361 65.5686279,16.944974 L65.5686279,17.0240643 C65.5686279,21.1320305 67.1018085,24.9499114 69.8858948,27.7745652 C72.6955046,30.6249693 76.5333841,32.1949513 80.6929612,32.1949513 C89.2170616,32.1949513 95.8941178,25.4964491 95.8941178,16.944974 L95.8941178,16.8653581 C95.8941178,12.7576546 94.3606844,8.94003652 91.5765981,6.11511998 C88.7667356,3.26445311 84.9286034,1.69447112 80.7695318,1.69447112 Z" id="Fill-16" fill="#0F3560"></path>
                <path d="M86.9084529,17.0252066 C86.9084529,20.8611184 84.2615393,23.7538566 80.7513272,23.7538566 C77.2763622,23.7538566 74.5542891,20.7628098 74.5542891,16.9445775 L74.5542891,16.8634126 C74.5542891,13.0280366 77.1846157,10.1355662 80.6727984,10.1355662 C84.2278471,10.1355662 86.9084529,13.0628598 86.9084529,16.9445775 L86.9084529,17.0252066 Z M80.6727985,8.4723556 C76.2674096,8.4723556 72.9450963,12.0797734 72.9450963,16.8634124 L72.9450963,16.9445773 C72.9450963,21.695536 76.3739288,25.4170668 80.7513273,25.4170668 C85.1790049,25.4170668 88.5176459,21.8093812 88.5176459,17.0252064 L88.5176459,16.9445773 C88.5176459,12.1938864 85.0717081,8.4723556 80.6727985,8.4723556 Z" id="Fill-17" fill="#0F3560"></path>
                <path d="M121.345624,8.49617033 L113.999236,8.49617033 C113.558525,8.49617033 113.201587,8.86467524 113.201587,9.31934137 L113.201587,29.7016395 L107.272928,29.7016395 L107.272928,9.31934137 C107.272928,8.86467524 106.91599,8.49617033 106.475279,8.49617033 L99.128891,8.49617033 L99.128891,3.34054807 L121.345624,3.34054807 L121.345624,8.49617033 Z M122.143531,1.69447112 L98.331242,1.69447112 C97.8907877,1.69447112 97.5333361,2.06297602 97.5333361,2.51737703 L97.5333361,9.3193412 C97.5333361,9.77374221 97.8907877,10.1422471 98.331242,10.1422471 L105.677373,10.1422471 L105.677373,30.5245447 C105.677373,30.9792108 106.034568,31.3477157 106.475279,31.3477157 L113.999237,31.3477157 C114.439948,31.3477157 114.797143,30.9792108 114.797143,30.5245447 L114.797143,10.1422471 L122.143531,10.1422471 C122.583985,10.1422471 122.94118,9.77374221 122.94118,9.3193412 L122.94118,2.51737703 C122.94118,2.06297602 122.583985,1.69447112 122.143531,1.69447112 Z" id="Fill-18" fill="#0F3560"></path>
                <path d="M147.618662,29.7016395 L127.769587,29.7016395 L127.769587,3.34054807 L147.429939,3.34054807 L147.429939,8.29574608 L134.228094,8.29574608 C133.799973,8.29574608 133.453233,8.6645161 133.453233,9.11891712 L133.453233,13.36017 C133.453233,13.814571 133.799973,14.183341 134.228094,14.183341 L146.111128,14.183341 L146.111128,18.6584222 L134.228094,18.6584222 C133.799973,18.6584222 133.453233,19.0269271 133.453233,19.4813282 L133.453233,23.9230053 C133.453233,24.3774063 133.799973,24.7459112 134.228094,24.7459112 L147.618662,24.7459112 L147.618662,29.7016395 Z M148.393524,23.0998338 L135.003205,23.0998338 L135.003205,20.3044988 L146.885989,20.3044988 C147.31411,20.3044988 147.6611,19.9359939 147.6611,19.4813277 L147.6611,13.3601697 C147.6611,12.9057687 147.31411,12.5372638 146.885989,12.5372638 L135.003205,12.5372638 L135.003205,9.94182286 L148.204801,9.94182286 C148.632922,9.94182286 148.979912,9.57331796 148.979912,9.11891695 L148.979912,2.51737703 C148.979912,2.06297602 148.632922,1.69447112 148.204801,1.69447112 L126.994725,1.69447112 C126.566605,1.69447112 126.219615,2.06297602 126.219615,2.51737703 L126.219615,30.5245447 C126.219615,30.9792108 126.566605,31.3477157 126.994725,31.3477157 L148.393524,31.3477157 C148.821644,31.3477157 149.168634,30.9792108 149.168634,30.5245447 L149.168634,23.9230048 C149.168634,23.4683387 148.821644,23.0998338 148.393524,23.0998338 Z" id="Fill-19" fill="#0F3560"></path>
                <path d="M166.558588,30.5634841 C158.964158,30.5634841 153.237351,24.7428579 153.237351,17.0240644 L153.237351,16.9449741 C153.237351,9.18098608 159.098727,3.32593855 166.871544,3.32593855 C171.362603,3.32593855 174.805117,4.90564262 177.369955,8.14992175 L172.896527,11.6587987 C171.117061,9.6531631 169.160503,8.71327596 166.792981,8.71327596 C162.608914,8.71327596 159.453686,12.2179488 159.453686,16.8653583 L159.453686,16.9449741 C159.453686,21.637578 162.608914,25.1761467 166.792981,25.1761467 C169.809491,25.1761467 171.645481,23.755937 173.10914,22.0879461 L177.547564,25.2912349 C174.708922,28.93044 171.287151,30.5634841 166.558588,30.5634841 Z M179.156162,24.4493565 L173.442579,20.3256247 C173.09825,20.0773179 172.623242,20.1406427 172.354105,20.4714557 C170.812661,22.3688347 169.344854,23.544679 166.79298,23.544679 C163.473108,23.544679 161.063581,20.7691611 161.063581,16.944974 L161.063581,16.8653581 C161.063581,13.1481138 163.526779,10.3447434 166.79298,10.3447434 C168.918591,10.3447434 170.521226,11.2260354 172.151863,13.2910544 C172.426445,13.6386839 172.925048,13.6991183 173.273007,13.426375 L178.986331,8.94555445 C179.329364,8.676227 179.400149,8.17987621 179.146569,7.82331293 C176.253477,3.756337 172.123601,1.69447112 166.871544,1.69447112 C162.667771,1.69447112 158.79692,3.26471587 155.973057,6.11617102 C153.170715,8.94529169 151.627457,12.791025 151.627457,16.944974 L151.627457,17.0240643 C151.627457,21.2150622 153.178494,25.0741962 155.995356,27.8904417 C158.771769,30.6662224 162.522832,32.1949513 166.558588,32.1949513 C172.05515,32.1949513 176.116835,30.0970875 179.340773,25.5928814 C179.466785,25.4165705 179.518123,25.1969044 179.483638,24.9819679 C179.448894,24.7672943 179.331179,24.5754806 179.156162,24.4493565 Z" id="Fill-20" fill="#0F3560"></path>
                <path d="M207.408804,29.7016395 L201.496851,29.7016395 L201.496851,19.8813813 C201.496851,19.4267152 201.140888,19.0582103 200.701381,19.0582103 L191.070912,19.0582103 C190.631405,19.0582103 190.275186,19.4267152 190.275186,19.8813813 L190.275186,29.7016395 L184.363745,29.7016395 L184.363745,3.34054807 L190.275186,3.34054807 L190.275186,12.9998836 C190.275186,13.4542846 190.631405,13.8227895 191.070912,13.8227895 L200.701381,13.8227895 C201.140888,13.8227895 201.496851,13.4542846 201.496851,12.9998836 L201.496851,3.34054807 L207.408804,3.34054807 L207.408804,29.7016395 Z M208.204274,1.69447112 L200.70138,1.69447112 C200.261873,1.69447112 199.905654,2.06297602 199.905654,2.51737703 L199.905654,12.1767123 L191.866382,12.1767123 L191.866382,2.51737703 C191.866382,2.06297602 191.510163,1.69447112 191.070912,1.69447112 L183.568019,1.69447112 C183.128512,1.69447112 182.772549,2.06297602 182.772549,2.51737703 L182.772549,30.5245447 C182.772549,30.9792108 183.128512,31.3477157 183.568019,31.3477157 L191.070912,31.3477157 C191.510163,31.3477157 191.866382,30.9792108 191.866382,30.5245447 L191.866382,20.7042868 L199.905654,20.7042868 L199.905654,30.5245447 C199.905654,30.9792108 200.261873,31.3477157 200.70138,31.3477157 L208.204274,31.3477157 C208.643781,31.3477157 209,30.9792108 209,30.5245447 L209,2.51737703 C209,2.06297602 208.643781,1.69447112 208.204274,1.69447112 Z" id="Fill-21" fill="#0F3560"></path>
                <g id="Group-25">
                    <mask id="mask-6" fill="white">
                        <use xlink:href="#path-5"></use>
                    </mask>
                    <g id="Clip-23"></g>
                    <path d="M8.12728126,31.297662 C7.53815709,31.297662 7.0588107,30.7994478 7.0588107,30.1871347 C7.0588107,29.5748217 7.53815709,29.0768656 8.12728126,29.0768656 C8.71615707,29.0768656 9.19550346,29.5748217 9.19550346,30.1871347 C9.19550346,30.7994478 8.71615707,31.297662 8.12728126,31.297662 Z M7.37796099,4.05696109 C6.78908516,4.05696109 6.30973875,3.559005 6.30973875,2.94669195 C6.30973875,2.33437891 6.78908516,1.83642281 7.37796099,1.83642281 C7.96708518,1.83642281 8.44618323,2.33437891 8.44618323,2.94669195 C8.44618323,3.559005 7.96708518,4.05696109 7.37796099,4.05696109 Z M21.0986931,2.15135616 L9.95053615,2.15135616 C9.92073223,2.15135616 9.89266687,2.15677714 9.86385641,2.16039113 C9.53899366,1.05347786 8.54801327,0.245493135 7.37796097,0.245493135 C5.94513744,0.245493135 4.779059,1.45721209 4.779059,2.94669192 C4.779059,4.43617176 5.94513744,5.64789071 7.37796097,5.64789071 C8.54801327,5.64789071 9.53899366,4.83990598 9.86385641,3.73299272 C9.89266687,3.73634857 9.92073223,3.74202769 9.95053615,3.74202769 L21.0986931,3.74202769 C27.4417127,3.74202769 31.2285493,7.02352989 31.2285493,12.5198912 L31.2285493,12.5981082 C31.2285493,18.2400617 27.3016343,21.6085578 20.7236604,21.6085578 L17.1300525,21.6085578 C16.7073336,21.6085578 16.3645885,21.9647938 16.3645885,22.4038935 L16.3645885,29.3917998 L10.6998564,29.3917998 C10.6700525,29.3917998 10.6417388,29.3972208 10.6129283,29.4008348 C10.2880656,28.2939215 9.29708517,27.4859368 8.12728124,27.4859368 C6.69420934,27.4859368 5.52837927,28.6976557 5.52837927,30.1871356 C5.52837927,31.6766154 6.69420934,32.8883344 8.12728124,32.8883344 C9.29708517,32.8883344 10.2883139,32.0806078 10.6129283,30.9734364 C10.6417388,30.9767922 10.6700525,30.9824713 10.6998564,30.9824713 L17.1300525,30.9824713 C17.5525231,30.9824713 17.8952682,30.6264934 17.8952682,30.1871356 L17.8952682,23.1994874 L20.7236604,23.1994874 C28.1475689,23.1994874 32.7589807,19.1371054 32.7589807,12.5981082 L32.7589807,12.5198912 C32.7589807,6.12416286 28.2911245,2.15135616 21.0986931,2.15135616 Z" id="Fill-22" fill="#0F3560" mask="url(#mask-6)"></path>
                    <path d="M2.61852287,10.4766965 C2.02492812,10.4766965 1.54210461,9.97486825 1.54210461,9.35790867 C1.54210461,8.74120723 2.02492812,8.23937902 2.61852287,8.23937902 C3.21186925,8.23937902 3.69469276,8.74120723 3.69469276,9.35790867 C3.69469276,9.97486825 3.21186925,10.4766965 2.61852287,10.4766965 Z M11.6267584,17.8081899 C11.0331636,17.8081899 10.5505884,17.3063617 10.5505884,16.6894021 C10.5505884,16.0727006 11.0331636,15.5708724 11.6267584,15.5708724 C12.2203531,15.5708724 12.7029283,16.0727006 12.7029283,16.6894021 C12.7029283,17.3063617 12.2203531,17.8081899 11.6267584,17.8081899 Z M20.4454901,10.1594397 C23.300209,10.1594397 23.8995162,11.6850594 23.8995162,12.9649278 L23.8995162,13.0436612 C23.8995162,14.7752782 22.6221698,15.8093954 20.4829934,15.8093954 L14.2187058,15.8093954 C14.1799607,15.8093954 14.1429542,15.8153326 14.106196,15.8210118 C13.7562483,14.7453337 12.7781829,13.9680679 11.6267581,13.9680679 C10.1830065,13.9680679 9.00848361,15.1888218 9.00848361,16.6894017 C9.00848361,18.1899816 10.1830065,19.4109936 11.6267581,19.4109936 C12.8320784,19.4109936 13.8469019,18.5588666 14.1504052,17.4049715 C14.1732548,17.4070367 14.195111,17.4121995 14.2187058,17.4121995 L20.4829934,17.4121995 C23.4951763,17.4121995 25.4416208,15.6973617 25.4416208,13.0436612 L25.4416208,12.9649278 C25.4416208,10.2046146 23.5739084,8.5566356 20.4454901,8.5566356 L5.21022219,8.5566356 C5.18041827,8.5566356 5.15185618,8.56231472 5.12279736,8.56567057 C4.79569932,7.4504968 3.79701959,6.63657484 2.61852286,6.63657484 C1.17477124,6.63657484 0,7.85732871 0,9.3579086 C0,10.8587466 1.17477124,12.0795005 2.61852286,12.0795005 C3.79701959,12.0795005 4.79569932,11.2655785 5.12279736,10.1501466 C5.15185618,10.1537606 5.18041827,10.1594397 5.21022219,10.1594397 L20.4454901,10.1594397 Z" id="Fill-24" fill="#0F3560" mask="url(#mask-6)"></path>
                </g>
            </g>
        </g>
    </g>
</svg>