<?xml version="1.0" encoding="UTF-8"?>
<svg width="210px" height="53px" viewBox="0 0 210 53" version="1.1" xmlns="http://www.w3.org/2000/svg" xmlns:xlink="http://www.w3.org/1999/xlink">
    <!-- Generator: sketchtool 52.6 (67491) - http://www.bohemiancoding.com/sketch -->
    <title>88D156AC-C007-4068-ACD2-BA92868E1904</title>
    <desc>Created with sketchtool.</desc>
    <defs>
        <polygon id="path-1" points="0.130117723 0.21910048 24.4943431 0.21910048 24.4943431 11.1426795 0.130117723 11.1426795"></polygon>
        <polygon id="path-3" points="0.0892815515 0.0968708123 19.3109403 0.0968708123 19.3109403 14.6929183 0.0892815515 14.6929183"></polygon>
        <polygon id="path-5" points="0.0152184462 0.241162682 33.4547103 0.241162682 33.4547103 32.3081911 0.0152184462 32.3081911"></polygon>
    </defs>
    <g id="Asset-Artboard-Page" stroke="none" stroke-width="1" fill="none" fill-rule="evenodd">
        <g id="MARCA_PROTECH_NEGATIVA_01" transform="translate(0.482759, 0.000000)">
            <g>
                <g id="Group-4" transform="translate(52.503639, 41.842107)">
                    <mask id="mask-2" fill="white">
                        <use xlink:href="#path-1"></use>
                    </mask>
                    <g id="Clip-2"></g>
                    <path d="M4.57821621,11.1183353 C3.82312759,11.1183353 3.05916154,10.9846942 2.28403529,10.7176655 C1.50966997,10.4496224 0.792120178,10.0557994 0.130117723,9.53340705 L1.20225733,7.90207206 C1.77091998,8.32632567 2.35074282,8.64711515 2.93944308,8.8649477 C3.52865063,9.08354101 4.09452323,9.19283766 4.63756816,9.19283766 C5.15347352,9.19283766 5.55422596,9.09013431 5.83906457,8.88523478 C6.12314225,8.68084243 6.26543473,8.40722041 6.26543473,8.06360795 L6.26543473,8.02404814 C6.26543473,7.82599551 6.2030391,7.65431607 6.07697963,7.50977061 C5.95142744,7.3642108 5.7789517,7.2381773 5.56082062,7.13243089 C5.34218226,7.02744524 5.0905706,6.92778495 4.80649292,6.83522513 C4.52165432,6.74291891 4.22667008,6.6503591 3.92280842,6.55805287 C3.53828898,6.45306722 3.15148678,6.32703373 2.76113361,6.18223468 C2.3705268,6.03692845 2.01923431,5.84851218 1.70852434,5.61749303 C1.39756074,5.38622029 1.14265175,5.09941167 0.943797369,4.75579922 C0.745703914,4.41244035 0.646023085,3.98996187 0.646023085,3.48785659 L0.646023085,3.44829678 C0.646023085,2.95963169 0.742152943,2.51711971 0.93441266,2.12101443 C1.12591145,1.72465556 1.39071244,1.38789 1.72856197,1.11046415 C2.06615785,0.833038303 2.46310569,0.621799061 2.9196591,0.477253601 C3.37697344,0.332200964 3.86269555,0.258660291 4.37936184,0.258660291 C5.04136429,0.258660291 5.70996141,0.365928238 6.38515318,0.579956954 C7.06034496,0.794239259 7.67542387,1.08764118 8.23165811,1.46269861 L7.27822239,3.17771782 C6.77474543,2.87290441 6.26543473,2.63148813 5.74952937,2.45245463 C5.23286308,2.2741819 4.75652569,2.18491874 4.31975625,2.18491874 C3.85610089,2.18491874 3.49567733,2.28381826 3.23747101,2.4818709 C2.97901105,2.68017713 2.85066881,2.93097618 2.85066881,3.23401447 L2.85066881,3.27433505 C2.85066881,3.45945467 2.91661541,3.62073697 3.04876226,3.7594499 C3.18090911,3.89790923 3.35693582,4.02368914 3.5750669,4.13577527 C3.79370526,4.24811499 4.044556,4.35360781 4.3293946,4.45276093 C4.6142332,4.55191404 4.90845652,4.64802409 5.2130791,4.74058391 C5.59683761,4.85850257 5.98084977,4.99721549 6.3653692,5.15570832 C6.74912771,5.31496192 7.09636195,5.50946432 7.4075792,5.74048347 C7.7185428,5.9717562 7.97319815,6.25273229 8.17205253,6.58214378 C8.37039963,6.91231605 8.47008046,7.31526821 8.47008046,7.7907467 L8.47008046,7.83030651 C8.47008046,8.38515821 8.37039963,8.86697641 8.17205253,9.27652188 C7.97319815,9.68606735 7.69875882,10.0256224 7.34797361,10.2964549 C6.9971884,10.5672875 6.58324664,10.7719334 6.10690924,10.9106463 C5.63057184,11.0493593 5.12075386,11.1183353 4.57821621,11.1183353" id="Fill-1" fill="#DF542A" mask="url(#mask-2)"></path>
                    <path d="M18.9150076,9.07339696 C19.4009833,9.07339696 19.839021,8.98438739 20.2265841,8.80560749 C20.6146545,8.62733477 20.9471775,8.3859185 21.2231387,8.0813587 C21.4998608,7.77654531 21.7106363,7.42304293 21.8552115,7.01882284 C21.9997868,6.61510993 22.072328,6.18832047 22.072328,5.73820086 L22.072328,5.69864105 C22.072328,5.23584202 21.9931921,4.79840184 21.8351739,4.38834922 C21.6774093,3.97804301 21.4572491,3.6207368 21.174186,3.31617699 C20.8913766,3.01161719 20.5560634,2.77020093 20.167993,2.59192821 C19.779669,2.41289472 19.3487333,2.32337797 18.8754396,2.32337797 C18.401385,2.32337797 17.970703,2.41289472 17.5823789,2.59192821 C17.1940549,2.77020093 16.8622928,3.00882772 16.5855707,3.30654063 C16.3096095,3.60374637 16.0990877,3.9582631 15.9545124,4.36856931 C15.8099372,4.77862194 15.7379032,5.20921523 15.7379032,5.65908125 L15.7379032,5.69864105 C15.7379032,6.16169368 15.8165318,6.59533003 15.9742964,6.99904294 C16.132061,7.40326302 16.3522212,7.76056924 16.6355379,8.07096157 C16.9180937,8.38211468 17.2534068,8.62733477 17.6417309,8.80560749 C18.0300549,8.98438739 18.4541423,9.07339696 18.9150076,9.07339696 Z M18.8746787,11.1578943 C18.0805294,11.1578943 17.3424347,11.0156312 16.6614092,10.731612 C15.9788619,10.4470857 15.3901617,10.0593489 14.8940403,9.57017668 C14.397158,9.08075086 14.0103558,8.50459777 13.7323655,7.84273177 C13.4541216,7.18111936 13.3153801,6.47943996 13.3153801,5.73820075 L13.3153801,5.69864094 C13.3153801,4.94446872 13.4569117,4.23619602 13.7417502,3.57458361 C14.0265888,2.9127176 14.416942,2.33352145 14.9138243,1.83699516 C15.4099456,1.34097604 15.9994068,0.947660261 16.6811932,0.656287066 C17.3629796,0.36516746 18.1071617,0.21910048 18.9150076,0.21910048 C19.7223462,0.21910048 20.4665282,0.361363632 21.1483146,0.646143526 C21.830101,0.930669831 22.4195622,1.32119613 22.9156836,1.81721525 C23.4125658,2.31374155 23.799368,2.88913387 24.0773583,3.54440657 C24.3556023,4.19967928 24.4943438,4.90490892 24.4943438,5.65908114 L24.4943438,5.69864094 C24.4943438,6.43988015 24.3517976,7.14130596 24.0679736,7.80317196 C23.783135,8.46503797 23.3927819,9.04372694 22.8958996,9.53974606 C22.3997782,10.0365259 21.807527,10.4306025 21.1188923,10.7214685 C20.4305112,11.0125881 19.6820173,11.1578943 18.8746787,11.1578943 Z" id="Fill-3" fill="#DF542A" mask="url(#mask-2)"></path>
                </g>
                <polygon id="Fill-5" fill="#DF542A" points="82.5580466 52.7623866 84.9805697 52.7623866 84.9805697 38.2690426 82.5580466 38.2690426"></polygon>
                <path d="M94.679788,52.9802216 C93.4917346,52.9802216 92.574316,52.6163221 91.9277856,51.888523 C91.2804944,51.1604703 90.957356,50.1808579 90.957356,48.9504463 L90.957356,42.2798002 L93.3801327,42.2798002 L93.3801327,48.2218865 C93.3801327,49.0407238 93.5731533,49.6708913 93.9607164,50.1136569 C94.3475186,50.5559153 94.8956363,50.7767909 95.6045622,50.7767909 C96.299538,50.7767909 96.8641423,50.5490684 97.297868,50.0936234 C97.7308328,49.6381784 97.9471884,49.001164 97.9471884,48.1820731 L97.9471884,42.2798002 L100.369965,42.2798002 L100.369965,52.762389 L97.9471884,52.762389 L97.9471884,51.1173603 C97.6037588,51.6247909 97.1751059,52.0622311 96.6599615,52.4296809 C96.1448171,52.7968771 95.4850974,52.9802216 94.679788,52.9802216" id="Fill-6" fill="#DF542A"></path>
                <path d="M109.900265,52.9406613 C109.463495,52.9406613 109.057923,52.8876613 108.684311,52.7821685 C108.310698,52.6764221 107.987052,52.5039819 107.713374,52.2656087 C107.439695,52.0277427 107.229681,51.7130393 107.083076,51.322513 C106.935457,50.9322403 106.862663,50.4458575 106.862663,49.8631111 L106.862663,44.3445177 L105.532063,44.3445177 L105.532063,42.2798 L106.862663,42.2798 L106.862663,39.4013167 L109.285186,39.4013167 L109.285186,42.2798 L112.10491,42.2798 L112.10491,44.3445177 L109.285186,44.3445177 L109.285186,49.4860249 C109.285186,49.9498383 109.397802,50.2835608 109.622781,50.4892211 C109.847507,50.6946278 110.165319,50.7965704 110.575456,50.7965704 C111.092123,50.7965704 111.588244,50.6776374 112.065342,50.4392642 L112.065342,52.4050824 C111.759959,52.5765082 111.436567,52.7093886 111.092123,52.8019484 C110.747425,52.8942546 110.350223,52.9406613 109.900265,52.9406613" id="Fill-7" fill="#DF542A"></path>
                <g id="Group-11" transform="translate(117.435682, 38.291865)">
                    <mask id="mask-4" fill="white">
                        <use xlink:href="#path-3"></use>
                    </mask>
                    <g id="Clip-9"></g>
                    <path d="M0.188962379,14.470521 L2.61173915,14.470521 L2.61173915,3.98793288 L0.188962379,3.98793288 L0.188962379,14.470521 Z M0.0892815515,2.37967468 L2.69087498,2.37967468 L2.69087498,0.0968708123 L0.0892815515,0.0968708123 L0.0892815515,2.37967468 Z" id="Fill-8" fill="#DF542A" mask="url(#mask-4)"></path>
                    <path d="M13.7318578,12.6236361 C14.2178335,12.6236361 14.6558712,12.5346265 15.0434343,12.3558466 C15.4315047,12.1775739 15.7640277,11.9361577 16.0399889,11.6315978 C16.316711,11.3267845 16.5272328,10.9732821 16.6720617,10.569062 C16.8163833,10.1653491 16.8891782,9.73855962 16.8891782,9.28844001 L16.8891782,9.2488802 C16.8891782,8.78608117 16.8097887,8.34864099 16.6520241,7.93858836 C16.4942595,7.52828215 16.2740993,7.17097594 15.9907826,6.86641614 C15.7082268,6.56185634 15.37266,6.32044008 14.9845896,6.14216735 C14.5965192,5.96313386 14.1655835,5.87361712 13.6920362,5.87361712 C13.2179816,5.87361712 12.7872995,5.96313386 12.3992291,6.14216735 C12.0109051,6.32044008 11.679143,6.55906686 11.4024209,6.85677978 C11.1264597,7.15398551 10.9156842,7.50850225 10.7713626,7.91880846 C10.6267874,8.32886108 10.5547534,8.75945437 10.5547534,9.20932039 L10.5547534,9.2488802 C10.5547534,9.71193282 10.633382,10.1455692 10.7911466,10.5492821 C10.9489112,10.9535022 11.1690714,11.3108084 11.4521345,11.6212007 C11.7349439,11.9323538 12.0702571,12.1775739 12.4585811,12.3558466 C12.8466515,12.5346265 13.2709925,12.6236361 13.7318578,12.6236361 Z M13.6915289,14.7081335 C12.8973796,14.7081335 12.1592849,14.5658703 11.4780058,14.2818512 C10.7957121,13.9973249 10.2067582,13.6095881 9.71063686,13.1204158 C9.21375458,12.63099 8.82720603,12.0548369 8.5489621,11.3929709 C8.27071817,10.7313585 8.1322303,10.0296791 8.1322303,9.2884399 L8.1322303,9.24888009 C8.1322303,8.49470787 8.27376186,7.78643517 8.55860045,7.12482275 C8.8431854,6.46295675 9.23353856,5.8837606 9.73042084,5.3872343 C10.2265422,4.89121518 10.816257,4.49789941 11.4977898,4.20652621 C12.1798298,3.91540661 12.9237582,3.76933963 13.7318577,3.76933963 C14.5389427,3.76933963 15.2833784,3.91160278 15.9649112,4.19638267 C16.6469512,4.48090898 17.2361587,4.87143528 17.7322801,5.3674544 C18.2291624,5.8639807 18.6162182,6.43937302 18.8942085,7.09464572 C19.1721988,7.74991842 19.3109403,8.45514806 19.3109403,9.20932028 L19.3109403,9.24888009 C19.3109403,9.9901193 19.1686478,10.6915451 18.8845701,11.3534111 C18.5997315,12.0152771 18.2093784,12.5939661 17.7124961,13.0899852 C17.2163747,13.5867651 16.6241235,13.9808416 15.9357425,14.2717077 C15.2473614,14.5628273 14.4988675,14.7081335 13.6915289,14.7081335 Z" id="Fill-10" fill="#DF542A" mask="url(#mask-4)"></path>
                </g>
                <path d="M142.168197,42.2798003 L144.59072,42.2798003 L144.59072,43.9240683 C144.762435,43.670987 144.950383,43.4341353 145.155071,43.2132597 C145.359759,42.9928913 145.59742,42.7963601 145.867801,42.6223984 C146.138436,42.4486903 146.435703,42.3122597 146.758588,42.211585 C147.082233,42.1119247 147.44849,42.061207 147.857867,42.061207 C149.046174,42.061207 149.963592,42.4258673 150.610123,43.1529056 C151.256907,43.8814654 151.580299,44.8605707 151.580299,46.091743 L151.580299,52.7623892 L149.157776,52.7623892 L149.157776,46.8203029 C149.157776,46.0014655 148.963994,45.3710444 148.577192,44.9285325 C148.189882,44.4862741 147.642272,44.2653985 146.933346,44.2653985 C146.237609,44.2653985 145.67402,44.4926138 145.24004,44.9483124 C144.807075,45.4040109 144.59072,46.0410253 144.59072,46.8598627 L144.59072,52.7623892 L142.168197,52.7623892 L142.168197,42.2798003" id="Fill-12" fill="#DF542A"></path>
                <path d="M161.052256,52.9604406 C160.296914,52.9604406 159.533202,52.8267994 158.758076,52.5597707 C157.98371,52.2917277 157.265907,51.8979047 156.604158,51.3755123 L157.676044,49.7441773 C158.245214,50.1684309 158.824783,50.4892204 159.413483,50.707053 C160.002691,50.9256463 160.568563,51.0349429 161.111608,51.0349429 C161.627767,51.0349429 162.02852,50.9322396 162.313105,50.72734 C162.597182,50.5229477 162.739475,50.2493257 162.739475,49.9057132 L162.739475,49.8661534 C162.739475,49.6681008 162.677079,49.4964213 162.550766,49.3518759 C162.425214,49.2063161 162.252738,49.0802826 162.034861,48.9745361 C161.816222,48.8695505 161.564611,48.7698902 161.28028,48.6773304 C160.995695,48.5850242 160.70071,48.4924644 160.396849,48.4001581 C160.012076,48.2951725 159.625527,48.169139 159.235174,48.0243399 C158.844567,47.8790337 158.493021,47.6906174 158.182565,47.4595983 C157.871601,47.2283256 157.616692,46.9415169 157.417838,46.5979045 C157.219744,46.2545456 157.11981,45.8320671 157.11981,45.3299618 L157.11981,45.290402 C157.11981,44.8017369 157.216193,44.359225 157.408453,43.9631197 C157.599952,43.5667608 157.865006,43.2299953 158.202602,42.9525694 C158.540198,42.6751436 158.937146,42.4639043 159.393699,42.3193589 C159.851014,42.1743062 160.336736,42.1007656 160.853402,42.1007656 C161.515151,42.1007656 162.184002,42.2080335 162.859193,42.4220622 C163.534132,42.6363445 164.14921,42.9297464 164.705445,43.3048039 L163.752263,45.0198231 C163.248786,44.7150097 162.739475,44.4735934 162.22357,44.2945599 C161.706903,44.1162872 161.230566,44.027024 160.793796,44.027024 C160.329887,44.027024 159.969718,44.1259235 159.711511,44.3239762 C159.453051,44.5222824 159.324455,44.7730814 159.324455,45.0761197 L159.324455,45.1164403 C159.324455,45.3015599 159.390656,45.4628422 159.522802,45.6015552 C159.654696,45.7400145 159.83123,45.8657944 160.049107,45.9778805 C160.267492,46.0902202 160.518596,46.1957131 160.803435,46.2948662 C161.088273,46.3940193 161.382497,46.4901294 161.687119,46.5826892 C162.070878,46.7006078 162.454636,46.8393208 162.839409,46.9978136 C163.223168,47.1570672 163.570402,47.3515696 163.881366,47.5825887 C164.192583,47.8138615 164.447238,48.0948375 164.646093,48.424249 C164.844186,48.7544213 164.944121,49.1573735 164.944121,49.632852 L164.944121,49.6724118 C164.944121,50.2272635 164.844186,50.7090817 164.646093,51.1186271 C164.447238,51.5281726 164.172799,51.8677276 163.822014,52.1385602 C163.471229,52.4093927 163.057287,52.6140387 162.580949,52.7527516 C162.104612,52.8914645 161.59454,52.9604406 161.052256,52.9604406" id="Fill-13" fill="#DF542A"></path>
                <path d="M53.0253793,12.5746933 C53.0253793,14.6536119 51.0246608,14.9640042 49.8320418,14.9640042 L45.7197636,14.9640042 L45.7197636,10.1093059 L49.7934884,10.1093059 C51.9380213,10.1093059 53.0253793,10.9131814 53.0253793,12.4983632 L53.0253793,12.5746933 Z M49.7934881,8.5347747 L44.932209,8.5347747 C44.4974687,8.5347747 44.144908,8.88726275 44.144908,9.32191349 L44.144908,15.751397 C44.144908,16.1860477 44.4974687,16.5385358 44.932209,16.5385358 L49.8320415,16.5385358 C52.77326,16.5385358 54.6002345,15.0197941 54.6002345,12.5746935 L54.6002345,12.4983634 C54.6002345,10.0164925 52.8031896,8.5347747 49.7934881,8.5347747 Z" id="Fill-14" fill="#FFFFFE"></path>
                <path d="M54.0051938,28.8953972 L48.8413211,21.1327991 C48.695224,20.913445 48.4491925,20.781579 48.1856597,20.781579 L44.9322094,20.781579 C44.4974692,20.781579 44.1449085,21.134067 44.1449085,21.5687178 L44.1449085,28.8953972 L38.293923,28.8953972 L38.293923,3.68007655 L50.1767398,3.68007655 C53.8585894,3.68007655 56.605519,4.57879425 58.3541186,6.36405742 C59.7915008,7.76665551 60.4902812,9.62317704 60.4902812,12.0391148 L60.4902812,12.1162058 C60.4902812,16.5486795 57.7532435,18.6433206 55.4570336,19.6201436 C55.2399171,19.7124498 55.0755578,19.8973158 55.0093576,20.1237704 C54.943411,20.3502249 54.982218,20.5944307 55.1153794,20.7891866 L60.6642788,28.8953972 L54.0051938,28.8953972 Z M56.9365197,20.661378 C60.2528728,18.9291149 62.0651361,15.927134 62.0651361,12.1162057 L62.0651361,12.0391148 C62.0651361,9.21642104 61.1867781,6.92803825 59.46684,5.25004302 C57.42351,3.16326311 54.2978947,2.1055454 50.1767395,2.1055454 L37.5066219,2.1055454 C37.071628,2.1055454 36.7190673,2.45803344 36.7190673,2.89268416 L36.7190673,29.682536 C36.7190673,30.1174403 37.071628,30.4699283 37.5066219,30.4699283 L44.9322092,30.4699283 C45.3672031,30.4699283 45.7197638,30.1174403 45.7197638,29.682536 L45.7197638,22.3561101 L47.7638548,22.3561101 L52.9277273,30.1187083 C53.0738244,30.3380623 53.3198559,30.4699283 53.5833887,30.4699283 L62.1574614,30.4699283 C62.4496555,30.4699283 62.7177538,30.3081389 62.8539589,30.0497322 C62.990164,29.7915791 62.9721555,29.4789044 62.807289,29.2379953 L56.9365197,20.661378 Z" id="Fill-15" fill="#FFFFFE"></path>
                <path d="M94.1002191,16.2874833 C94.1002191,23.6575264 88.0902008,29.4307225 80.4178209,29.4307225 C76.6563281,29.4307225 73.1946387,28.0745311 70.6706593,25.6121866 C68.1826969,23.1850909 66.8125294,19.9003589 66.8125294,16.3638134 L66.8125294,16.2874833 C66.8125294,8.91718666 72.8222941,3.1437369 80.494674,3.1437369 C84.2559132,3.1437369 87.7173489,4.49992829 90.2415819,6.96252637 C92.729798,9.38987565 94.1002191,12.6743541 94.1002191,16.210646 L94.1002191,16.2874833 Z M80.4946742,1.56920575 C71.9393706,1.56920575 65.2376738,8.03419104 65.2376738,16.2874824 L65.2376738,16.3638126 C65.2376738,20.3284152 66.7765124,24.0130562 69.570873,26.7391326 C72.3908512,29.4900607 76.2428938,31.005252 80.4178211,31.005252 C88.9733784,31.005252 95.6750752,24.5405203 95.6750752,16.2874824 L95.6750752,16.2106451 C95.6750752,12.2462961 94.1359829,8.56190871 91.3416224,5.83557872 C88.5213905,3.08439705 84.6690943,1.56920575 80.4946742,1.56920575 Z" id="Fill-16" fill="#FFFFFE"></path>
                <path d="M86.5204196,16.3638132 C86.5204196,19.9952009 83.9299862,22.7337033 80.4946754,22.7337033 C77.0938598,22.7337033 74.4298706,19.9021339 74.4298706,16.2874831 L74.4298706,16.2106458 C74.4298706,12.5797653 77.004071,9.8415164 80.4178223,9.8415164 C83.8970129,9.8415164 86.5204196,12.6127318 86.5204196,16.2874831 L86.5204196,16.3638132 Z M80.4178221,8.26698525 C76.1064361,8.26698525 72.855015,11.6820617 72.855015,16.2106453 L72.855015,16.2874826 C72.855015,20.7851285 76.2106825,24.3082336 80.4946752,24.3082336 C84.8278743,24.3082336 88.0952748,20.8929036 88.0952748,16.3638128 L88.0952748,16.2874826 C88.0952748,11.7900904 84.722867,8.26698525 80.4178221,8.26698525 Z" id="Fill-17" fill="#FFFFFE"></path>
                <path d="M120.743661,8.61161245 L113.492579,8.61161245 C113.057585,8.61161245 112.705278,8.96410049 112.705278,9.39900479 L112.705278,28.8953972 L106.853531,28.8953972 L106.853531,9.39900479 C106.853531,8.96410049 106.501224,8.61161245 106.06623,8.61161245 L98.8151478,8.61161245 L98.8151478,3.68007655 L120.743661,3.68007655 L120.743661,8.61161245 Z M121.531217,2.1055454 L98.0278468,2.1055454 C97.5931065,2.1055454 97.2402921,2.45803344 97.2402921,2.89268416 L97.2402921,9.39900477 C97.2402921,9.83365549 97.5931065,10.1861435 98.0278468,10.1861435 L105.278676,10.1861435 L105.278676,29.682536 C105.278676,30.1174403 105.631237,30.4699283 106.066231,30.4699283 L113.492579,30.4699283 C113.927573,30.4699283 114.280134,30.1174403 114.280134,29.682536 L114.280134,10.1861435 L121.531217,10.1861435 C121.965957,10.1861435 122.318518,9.83365549 122.318518,9.39900477 L122.318518,2.89268416 C122.318518,2.45803344 121.965957,2.1055454 121.531217,2.1055454 Z" id="Fill-18" fill="#FFFFFE"></path>
                <path d="M147.654442,28.8953972 L127.486703,28.8953972 L127.486703,3.68007655 L147.462689,3.68007655 L147.462689,8.41989953 L134.048897,8.41989953 C133.613903,8.41989953 133.261596,8.77264116 133.261596,9.20729187 L133.261596,13.264201 C133.261596,13.6988517 133.613903,14.0515933 134.048897,14.0515933 L146.122705,14.0515933 L146.122705,18.3321675 L134.048897,18.3321675 C133.613903,18.3321675 133.261596,18.6846555 133.261596,19.1193063 L133.261596,23.3679283 C133.261596,23.802579 133.613903,24.155067 134.048897,24.155067 L147.654442,24.155067 L147.654442,28.8953972 Z M148.441743,22.580536 L134.836452,22.580536 L134.836452,19.9066986 L146.910007,19.9066986 C147.345,19.9066986 147.697561,19.5542106 147.697561,19.1193063 L147.697561,13.264201 C147.697561,12.8295502 147.345,12.4770622 146.910007,12.4770622 L134.836452,12.4770622 L134.836452,9.99443061 L148.249991,9.99443061 C148.684985,9.99443061 149.037545,9.64194257 149.037545,9.20729185 L149.037545,2.89268416 C149.037545,2.45803344 148.684985,2.1055454 148.249991,2.1055454 L126.699402,2.1055454 C126.264408,2.1055454 125.911847,2.45803344 125.911847,2.89268416 L125.911847,29.682536 C125.911847,30.1174403 126.264408,30.4699283 126.699402,30.4699283 L148.441743,30.4699283 C148.876737,30.4699283 149.229298,30.1174403 149.229298,29.682536 L149.229298,23.3679283 C149.229298,22.933024 148.876737,22.580536 148.441743,22.580536 Z" id="Fill-19" fill="#FFFFFE"></path>
                <path d="M166.854548,29.4307225 C159.425409,29.4307225 153.823245,23.8132297 153.823245,16.3638134 L153.823245,16.2874833 C153.823245,8.79444981 159.557049,3.1437369 167.160692,3.1437369 C171.554004,3.1437369 174.921593,4.66831106 177.430607,7.79936847 L173.054543,11.1857895 C171.313806,9.25014838 169.399833,8.34306225 167.083839,8.34306225 C162.990838,8.34306225 159.904283,11.7254259 159.904283,16.210646 L159.904283,16.2874833 C159.904283,20.8163206 162.990838,24.2313972 167.083839,24.2313972 C170.034696,24.2313972 171.830726,22.8607512 173.262528,21.2509713 L177.604351,24.3424689 C174.827492,27.8546699 171.480195,29.4307225 166.854548,29.4307225 Z M179.177938,23.5299701 L173.58871,19.5501521 C173.251875,19.310511 172.787205,19.3716258 172.523926,19.6908937 C171.016032,21.5220563 169.580171,22.6568649 167.083839,22.6568649 C163.836222,22.6568649 161.479138,19.9782095 161.479138,16.2874824 L161.479138,16.2106451 C161.479138,12.6231286 163.888726,9.91759285 167.083839,9.91759285 C169.163186,9.91759285 170.730939,10.7681287 172.326086,12.7610807 C172.594692,13.0965783 173.082443,13.1549037 173.422829,12.8916788 L179.011803,8.56723407 C179.34737,8.30730585 179.416614,7.82827717 179.168553,7.48415757 C176.338429,3.55911473 172.298439,1.56920575 167.160692,1.56920575 C163.048414,1.56920575 159.261811,3.08465064 156.499409,5.83659307 C153.75806,8.56698048 152.24839,12.2785018 152.24839,16.2874824 L152.24839,16.3638126 C152.24839,20.4085492 153.765669,24.1330035 156.521222,26.8509651 C159.237208,29.5298741 162.906629,31.005252 166.854547,31.005252 C172.231478,31.005252 176.204761,28.9806014 179.35853,24.6335872 C179.4818,24.4634294 179.53202,24.2514294 179.498286,24.043994 C179.464298,23.8368122 179.349145,23.6516926 179.177938,23.5299701 Z" id="Fill-20" fill="#FFFFFE"></path>
                <path d="M207.40993,28.8953972 L201.558691,28.8953972 L201.558691,19.5019713 C201.558691,19.067067 201.206384,18.714579 200.77139,18.714579 L191.239824,18.714579 C190.80483,18.714579 190.452269,19.067067 190.452269,19.5019713 L190.452269,28.8953972 L184.601537,28.8953972 L184.601537,3.68007655 L190.452269,3.68007655 L190.452269,12.9195742 C190.452269,13.3542249 190.80483,13.7067129 191.239824,13.7067129 L200.77139,13.7067129 C201.206384,13.7067129 201.558691,13.3542249 201.558691,12.9195742 L201.558691,3.68007655 L207.40993,3.68007655 L207.40993,28.8953972 Z M208.197232,2.1055454 L200.771391,2.1055454 C200.336397,2.1055454 199.983836,2.45803344 199.983836,2.89268416 L199.983836,12.1321818 L192.027125,12.1321818 L192.027125,2.89268416 C192.027125,2.45803344 191.674564,2.1055454 191.239824,2.1055454 L183.813983,2.1055454 C183.378989,2.1055454 183.026682,2.45803344 183.026682,2.89268416 L183.026682,29.682536 C183.026682,30.1174403 183.378989,30.4699283 183.813983,30.4699283 L191.239824,30.4699283 C191.674564,30.4699283 192.027125,30.1174403 192.027125,29.682536 L192.027125,20.2891101 L199.983836,20.2891101 L199.983836,29.682536 C199.983836,30.1174403 200.336397,30.4699283 200.771391,30.4699283 L208.197232,30.4699283 C208.632226,30.4699283 208.984786,30.1174403 208.984786,29.682536 L208.984786,2.89268416 C208.984786,2.45803344 208.632226,2.1055454 208.197232,2.1055454 Z" id="Fill-21" fill="#FFFFFE"></path>
                <g id="Group-25">
                    <mask id="mask-6" fill="white">
                        <use xlink:href="#path-5"></use>
                    </mask>
                    <g id="Clip-23"></g>
                    <path d="M8.29988719,30.7455788 C7.69825125,30.7455788 7.20872453,30.256153 7.20872453,29.654641 C7.20872453,29.053129 7.69825125,28.5639567 8.29988719,28.5639567 C8.90126949,28.5639567 9.39079621,29.053129 9.39079621,29.654641 C9.39079621,30.256153 8.90126949,30.7455788 8.29988719,30.7455788 Z M7.53465293,3.98539721 C6.93327063,3.98539721 6.44374393,3.49622494 6.44374393,2.89471296 C6.44374393,2.29320097 6.93327063,1.80402871 7.53465293,1.80402871 C8.13628886,1.80402871 8.62556192,2.29320097 8.62556192,2.89471296 C8.62556192,3.49622494 8.13628886,3.98539721 7.53465293,3.98539721 Z M21.5467837,2.11340668 L10.161864,2.11340668 C10.1314271,2.11340668 10.1027657,2.11873204 10.0733434,2.12228228 C9.74158124,1.03489473 8.72955456,0.241162682 7.53465288,0.241162682 C6.07139926,0.241162682 4.88055583,1.43150717 4.88055583,2.89471289 C4.88055583,4.35791862 6.07139926,5.5482631 7.53465288,5.5482631 C8.72955456,5.5482631 9.74158124,4.75453106 10.0733434,3.66714351 C10.1027657,3.67044016 10.1314271,3.67601911 10.161864,3.67601911 L21.5467837,3.67601911 C28.0245154,3.67601911 31.8917763,6.8996363 31.8917763,12.2990429 L31.8917763,12.3758803 C31.8917763,17.9183108 27.881462,21.2273873 21.1637862,21.2273873 L17.4938578,21.2273873 C17.0621612,21.2273873 16.712137,21.5773395 16.712137,22.0086936 L16.712137,28.8733346 L10.9270982,28.8733346 C10.8966613,28.8733346 10.8677463,28.87866 10.8383239,28.8822102 C10.5065618,27.7948227 9.49453513,27.0010906 8.29988709,27.0010906 C6.83637983,27.0010906 5.64579005,28.1914351 5.64579005,29.6546408 C5.64579005,31.1178466 6.83637983,32.3081911 8.29988709,32.3081911 C9.49453513,32.3081911 10.5068155,31.5147126 10.8383239,30.4270715 C10.8677463,30.4303681 10.8966613,30.4359471 10.9270982,30.4359471 L17.4938578,30.4359471 C17.9253008,30.4359471 18.275325,30.0862485 18.275325,29.6546408 L18.275325,22.7902534 L21.1637862,22.7902534 C28.7453625,22.7902534 33.4547107,18.7995309 33.4547107,12.3758803 L33.4547107,12.2990429 C33.4547107,6.01613391 28.8919669,2.11340668 21.5467837,2.11340668 Z" id="Fill-22" fill="#FFFFFE" mask="url(#mask-6)"></path>
                    <path d="M2.67413478,10.2918899 C2.06793331,10.2918899 1.57485563,9.79891387 1.57485563,9.19283732 C1.57485563,8.58701436 2.06793331,8.09403828 2.67413478,8.09403828 C3.28008261,8.09403828 3.77316029,8.58701436 3.77316029,9.19283732 C3.77316029,9.79891387 3.28008261,10.2918899 2.67413478,10.2918899 Z M11.8736861,17.4940577 C11.2674846,17.4940577 10.7746606,17.0010817 10.7746606,16.3950051 C10.7746606,15.7891822 11.2674846,15.2962061 11.8736861,15.2962061 C12.4798876,15.2962061 12.9727116,15.7891822 12.9727116,16.3950051 C12.9727116,17.0010817 12.4798876,17.4940577 11.8736861,17.4940577 Z M20.8797088,9.98022968 C23.7950559,9.98022968 24.4070911,11.4789378 24.4070911,12.7362297 L24.4070911,12.8135742 C24.4070911,14.514646 23.1026166,15.5305216 20.9180086,15.5305216 L14.5206809,15.5305216 C14.4811129,15.5305216 14.4433204,15.5363542 14.4057816,15.5419331 C14.0484017,14.4852298 13.0495644,13.7216747 11.8736857,13.7216747 C10.3992719,13.7216747 9.19980464,14.9208948 9.19980464,16.3950049 C9.19980464,17.869115 10.3992719,19.0685887 11.8736857,19.0685887 C13.1046044,19.0685887 14.1409806,18.231493 14.4509297,17.0979523 C14.4742646,17.099981 14.496585,17.1050528 14.5206809,17.1050528 L20.9180086,17.1050528 C23.9941639,17.1050528 25.9819467,15.4204642 25.9819467,12.8135742 L25.9819467,12.7362297 C25.9819467,10.0246077 24.074568,8.40569855 20.8797088,8.40569855 L5.32087623,8.40569855 C5.29043933,8.40569855 5.26127065,8.4112775 5.23159467,8.41457415 C4.89754977,7.31907174 3.8776602,6.51950713 2.67413472,6.51950713 C1.19972088,6.51950713 0,7.71872725 0,9.19283732 C0,10.667201 1.19972088,11.8664211 2.67413472,11.8664211 C3.8776602,11.8664211 4.89754977,11.0668565 5.23159467,9.97110049 C5.26127065,9.97465073 5.29043933,9.98022968 5.32087623,9.98022968 L20.8797088,9.98022968 Z" id="Fill-24" fill="#FFFFFE" mask="url(#mask-6)"></path>
                </g>
            </g>
        </g>
    </g>
</svg>