<?xml version="1.0" encoding="UTF-8"?>
<svg width="126px" height="120px" viewBox="0 0 126 120" version="1.1" xmlns="http://www.w3.org/2000/svg" xmlns:xlink="http://www.w3.org/1999/xlink">
    <!-- Generator: sketchtool 52.6 (67491) - http://www.bohemiancoding.com/sketch -->
    <title>0E713CCA-1DE3-4E5B-9355-9AAC71E6ABD5</title>
    <desc>Created with sketchtool.</desc>
    <g id="Asset-Artboard-Page" stroke="none" stroke-width="1" fill="none" fill-rule="evenodd">
        <g id="SIÌMBOLO_PROTECH_01" transform="translate(0.640653, 0.000000)" fill="#DF542A">
            <g>
                <path d="M30.1014829,114.1575 C27.8522612,114.1575 26.0222978,112.327788 26.0222978,110.07923 C26.0222978,107.830673 27.8522612,106.000961 30.1014829,106.000961 C32.3507046,106.000961 34.1789367,107.830673 34.1789367,110.07923 C34.1789367,112.327788 32.3507046,114.1575 30.1014829,114.1575 Z M27.2399649,14.1124038 C24.9907432,14.1124038 23.1622226,12.2829807 23.1622226,10.0341345 C23.1622226,7.78586526 24.9907432,5.95701908 27.2399649,5.95701908 C29.4891866,5.95701908 31.3174187,7.78586526 31.3174187,10.0341345 C31.3174187,12.2829807 29.4891866,14.1124038 27.2399649,14.1124038 Z M79.6311079,7.11317308 L37.0623849,7.11317308 C36.9495631,7.11317308 36.8387612,7.12096154 36.729402,7.13336539 C35.485477,3.07471154 31.7026293,0.114519228 27.2399655,0.114519228 C21.7676766,0.114519228 17.3162661,4.56461539 17.3162661,10.0341346 C17.3162661,15.5048077 21.7676766,19.9551923 27.2399655,19.9551923 C31.7026293,19.9551923 35.485477,16.9947115 36.7296905,12.9354808 C36.8390497,12.9475962 36.9498517,12.9556731 37.0623849,12.9556731 L79.6311079,12.9556731 C103.850278,12.9556731 118.30849,25.0075962 118.30849,45.1938462 L118.30849,45.48 C118.30849,66.2019231 103.313581,78.5725962 78.1984733,78.5725962 L64.4757676,78.5725962 C62.8622143,78.5725962 61.5525006,79.8801924 61.5525006,81.4938462 L61.5525006,107.157981 L39.9239029,107.157981 C39.8113697,107.157981 39.7005677,107.165769 39.5912085,107.178462 C38.3472835,103.118654 34.5641473,100.15875 30.1014834,100.15875 C24.6291946,100.15875 20.1760528,104.608558 20.1760528,110.079231 C20.1760528,115.549904 24.6291946,120 30.1014834,120 C34.5641473,120 38.3472835,117.039519 39.5912085,112.980289 C39.7005677,112.992692 39.8113697,113.000481 39.9239029,113.000481 L64.4757676,113.000481 C66.0887439,113.000481 67.3984575,111.692885 67.3984575,110.079231 L67.3984575,84.4150962 L78.1984733,84.4150962 C106.544151,84.4150962 124.154735,69.4961539 124.154735,45.48 L124.154735,45.1938462 C124.154735,21.705 107.093255,7.11317308 79.6311079,7.11317308 Z" id="Fill-1"></path>
                <path d="M9.92369934,37.4097107 C7.6744776,37.4097107 5.84624553,35.5802876 5.84624553,33.3317299 C5.84624553,31.0831722 7.6744776,29.254326 9.92369934,29.254326 C12.1729211,29.254326 14.0011532,31.0831722 14.0011532,33.3317299 C14.0011532,35.5802876 12.1729211,37.4097107 9.92369934,37.4097107 Z M44.0645479,64.1348079 C41.8153262,64.1348079 39.9853629,62.3053847 39.9853629,60.056827 C39.9853629,57.8082692 41.8153262,55.9785576 44.0645479,55.9785576 C46.3137697,55.9785576 48.1422902,57.8082692 48.1422902,60.056827 C48.1422902,62.3053847 46.3137697,64.1348079 44.0645479,64.1348079 Z M77.486629,36.2529796 C83.4575266,36.2529796 90.5753975,38.0273065 90.5753975,46.4798063 L90.5753975,46.7668255 C90.5753975,53.0800946 85.7356031,56.8491329 77.6277284,56.8491329 L53.8869686,56.8491329 C53.7432723,56.8491329 53.6027501,56.8629791 53.4645362,56.8831714 C52.1372212,52.9649984 48.4265102,50.1360562 44.0645491,50.1360562 C38.5925488,50.1360562 34.1391185,54.5861522 34.1391185,60.0568252 C34.1391185,65.5274981 38.5925488,69.9775941 44.0645491,69.9775941 C48.6287814,69.9775941 52.4803032,66.8806711 53.6339131,62.6789405 C53.7173031,62.686152 53.8015588,62.6919212 53.8869686,62.6919212 L77.6277284,62.6919212 C89.0435029,62.6919212 96.4213544,56.4409599 96.4213544,46.7668255 L96.4213544,46.4798063 C96.4213544,36.4171142 89.343303,30.4101913 77.486629,30.4101913 L19.7461188,30.4101913 C19.633297,30.4101913 19.5227836,30.4179798 19.4134244,30.4303836 C18.1692109,26.3720184 14.3863632,23.4118261 9.92369934,23.4118261 C4.4514105,23.4118261 0,27.8619222 0,33.3317297 C0,38.8021142 4.4514105,43.2522102 9.92369934,43.2522102 C14.3863632,43.2522102 18.1694994,40.292018 19.4134244,36.2327873 C19.5227836,36.2451912 19.633297,36.2529796 19.7461188,36.2529796 L77.486629,36.2529796 Z" id="Fill-3"></path>
            </g>
        </g>
    </g>
</svg>