<?xml version="1.0" encoding="UTF-8"?>
<svg width="124px" height="120px" viewBox="0 0 124 120" version="1.1" xmlns="http://www.w3.org/2000/svg" xmlns:xlink="http://www.w3.org/1999/xlink">
    <!-- Generator: sketchtool 52.6 (67491) - http://www.bohemiancoding.com/sketch -->
    <title>F38F66FD-23AC-484F-8A61-03B350108971</title>
    <desc>Created with sketchtool.</desc>
    <g id="Asset-Artboard-Page" stroke="none" stroke-width="1" fill="none" fill-rule="evenodd">
        <g id="SIÌMBOLO_PROTECH_03" transform="translate(62.061706, 60.000000) scale(-1, 1) translate(-62.061706, -60.000000) translate(0.482759, 0.000000)" fill="#FFFFFE">
            <g>
                <path d="M29.7103939,114.151917 C27.4756581,114.151917 25.6574805,112.320457 25.6574805,110.069751 C25.6574805,107.819046 27.4756581,105.987586 29.7103939,105.987586 C31.9451298,105.987586 33.7615872,107.819046 33.7615872,110.069751 C33.7615872,112.320457 31.9451298,114.151917 29.7103939,114.151917 Z M26.8673054,14.0112563 C24.6325696,14.0112563 22.8158254,12.1800856 22.8158254,9.92909125 C22.8158254,7.67867433 24.6325696,5.84808115 26.8673054,5.84808115 C29.1020412,5.84808115 30.9184987,7.67867433 30.9184987,9.92909125 C30.9184987,12.1800856 29.1020412,14.0112563 26.8673054,14.0112563 Z M78.9210248,7.00533923 L36.626464,7.00533923 C36.5143689,7.00533923 36.4042806,7.01313513 36.2956257,7.02555083 C35.0597121,2.96302 31.3012277,0 26.8673055,0 C21.4302607,0 17.0075193,4.45434706 17.0075193,9.92909098 C17.0075193,15.4049899 21.4302607,19.8596257 26.8673055,19.8596257 C31.3012277,19.8596257 35.0597121,16.8963169 36.2959124,12.8332086 C36.4045672,12.8453356 36.5146556,12.8534202 36.626464,12.8534202 L78.9210248,12.8534202 C102.984212,12.8534202 117.349306,24.9168557 117.349306,45.1223884 L117.349306,45.4088156 C117.349306,66.1505331 102.450972,78.5330231 77.497617,78.5330231 L63.8632919,78.5330231 C62.2601306,78.5330231 60.9588521,79.8418683 60.9588521,81.4570636 L60.9588521,107.145714 L39.4695525,107.145714 C39.3577441,107.145714 39.2476557,107.153509 39.1390008,107.166214 C37.9030873,103.102528 34.1443162,100.139797 29.710394,100.139797 C24.2733492,100.139797 19.8488877,104.593855 19.8488877,110.069754 C19.8488877,115.545653 24.2733492,120 29.710394,120 C34.1443162,120 37.9030873,117.036691 39.1390008,112.973583 C39.2476557,112.985999 39.3577441,112.993795 39.4695525,112.993795 L63.8632919,112.993795 C65.4658798,112.993795 66.7671583,111.684949 66.7671583,110.069754 L66.7671583,84.3811041 L77.497617,84.3811041 C105.660735,84.3811041 123.157899,69.4479106 123.157899,45.4088156 L123.157899,45.1223884 C123.157899,21.6111048 106.206303,7.00533923 78.9210248,7.00533923 Z" id="Fill-1"></path>
                <path d="M9.83854684,37.29598 C7.60862501,37.29598 5.79608047,35.4658105 5.79608047,33.2163355 C5.79608047,30.9668604 7.60862501,29.1372681 9.83854684,29.1372681 C12.0684687,29.1372681 13.8810132,30.9668604 13.8810132,33.2163355 C13.8810132,35.4658105 12.0684687,37.29598 9.83854684,37.29598 Z M43.6864409,64.0319789 C41.456519,64.0319789 39.6422581,62.2018095 39.6422581,59.9523344 C39.6422581,57.7028593 41.456519,55.8724013 43.6864409,55.8724013 C45.9163627,55.8724013 47.7291933,57.7028593 47.7291933,59.9523344 C47.7291933,62.2018095 45.9163627,64.0319789 43.6864409,64.0319789 Z M76.8217344,36.1387774 C82.7413971,36.1387774 89.7981912,37.9138282 89.7981912,46.3697769 L89.7981912,46.6569133 C89.7981912,52.9727583 84.999926,56.7433346 76.961623,56.7433346 L53.4245771,56.7433346 C53.2821139,56.7433346 53.1427974,56.7571864 53.0057695,56.777387 C51.6898439,52.8576152 48.0109736,50.0275187 43.6864416,50.0275187 C38.2613952,50.0275187 33.8461787,54.4794305 33.8461787,59.9523357 C33.8461787,65.4252408 38.2613952,69.8771527 43.6864416,69.8771527 C48.2115092,69.8771527 52.0299821,66.778966 53.173693,62.5755209 C53.2563675,62.5827354 53.3399002,62.588507 53.4245771,62.588507 L76.961623,62.588507 C88.2794414,62.588507 95.5939853,56.334995 95.5939853,46.6569133 L95.5939853,46.3697769 C95.5939853,36.3029789 88.576669,30.293605 76.8217344,30.293605 L19.576682,30.293605 C19.4648283,30.293605 19.3552632,30.3013966 19.2468423,30.3138055 C18.0133051,26.2537843 14.2629171,23.2923842 9.8385464,23.2923842 C4.41321398,23.2923842 0,27.7442961 0,33.2163355 C0,38.688952 4.41321398,43.1408639 9.8385464,43.1408639 C14.2629171,43.1408639 18.0135912,40.1794638 19.2468423,36.1185768 C19.3552632,36.1309857 19.4648283,36.1387774 19.576682,36.1387774 L76.8217344,36.1387774 Z" id="Fill-3"></path>
            </g>
        </g>
    </g>
</svg>