<?xml version="1.0" encoding="UTF-8"?>
<svg width="16px" height="16px" viewBox="0 0 16 16" version="1.1" xmlns="http://www.w3.org/2000/svg" xmlns:xlink="http://www.w3.org/1999/xlink">
    <!-- Generator: sketchtool 52.6 (67491) - http://www.bohemiancoding.com/sketch -->
    <title>6BDC24CE-6228-4E4C-AFBB-50F84C19B341</title>
    <desc>Created with sketchtool.</desc>
    <g id="Page-1" stroke="none" stroke-width="1" fill="none" fill-rule="evenodd">
        <g id="1.2---Protech-Solutions---Portfólio-0" transform="translate(-733.000000, -3211.000000)" fill="#DF542A">
            <g id="Group-2" transform="translate(162.000000, 3205.000000)">
                <g id="ico-todos" transform="translate(571.000000, 6.000000)">
                    <g id="Shape">
                        <path d="M0,4 L4,4 L4,0 L0,0 L0,4 L0,4 Z M6,16 L10,16 L10,12 L6,12 L6,16 L6,16 Z M0,16 L4,16 L4,12 L0,12 L0,16 L0,16 Z M0,10 L4,10 L4,6 L0,6 L0,10 L0,10 Z M6,10 L10,10 L10,6 L6,6 L6,10 L6,10 Z M12,0 L12,4 L16,4 L16,0 L12,0 L12,0 Z M6,4 L10,4 L10,0 L6,0 L6,4 L6,4 Z M12,10 L16,10 L16,6 L12,6 L12,10 L12,10 Z M12,16 L16,16 L16,12 L12,12 L12,16 L12,16 Z"></path>
                    </g>
                </g>
            </g>
        </g>
    </g>
</svg>